<svg width="310" height="67" viewBox="0 0 310 67" fill="none" xmlns="http://www.w3.org/2000/svg">
<path d="M49.1875 21.9375C49.2188 21.9062 49.2188 21.9062 49.25 21.9062C49.625 21.5312 49.9062 21.3125 50.5 21.1875L51.7188 20.9062C55.5312 20 59.375 19.1875 63.2188 18.4062C63.9688 18.25 64.0938 18.375 63.625 19.0312C63.1562 19.7812 62.6562 20.5312 62.1875 21.2812C56.5938 29.8438 51.2188 38.5625 46.0625 47.4375C45 49.7188 45.8438 50.5312 46.5 50.2812C47 50.125 47.0938 49.7812 47.0938 49.3125C47.125 49.0312 47.1875 48.75 47.3125 48.4688C51.625 41.125 56.125 33.875 60.7812 26.6875L65.75 18.9062C65.7812 18.8125 65.8438 18.7188 65.9062 18.6562C66.1875 18.0625 66.4688 17.75 67.1875 17.625C67.25 17.625 67.3125 17.625 67.375 17.5938C68.9062 17.3125 74.7188 16.3125 75.5938 16.7188C76.4375 17.0938 76.9062 16.4375 76 15.875C74.5938 15.2188 69.3125 15.9062 67.75 16.1875C67.375 16.2188 67.4062 16.0938 67.625 15.8438C67.6875 15.7812 67.75 15.6875 67.8125 15.5938C68.0312 15.25 68.4062 14.6875 68.9375 13.8438C70.0312 12.1875 71.2812 10.2812 72.6562 8.125C74.0312 5.9375 74.9688 4.3125 75.4688 3.21875C76.7812 0.21875 70.6875 2.90625 69.1562 3.90625C63.6562 7.5625 58.2812 12 53.125 16.375C52.125 17.2188 51.125 18.0625 50.1562 18.875L50.0938 18.9375C49.25 19.6562 48.9688 19.8438 47.8438 20.0625C47.6875 20.0938 47.5625 20.125 47.4062 20.1562C43.8125 20.9375 40.25 21.75 36.6875 22.625C32.0312 23.6562 36.1875 25.8125 36.5 24.4688C38.1562 24.0938 39.3125 23.7812 40.5625 23.5C41.1875 23.3438 41.9062 23.1875 42.75 22.9688C43.0625 22.9062 43.3438 22.8438 43.625 22.7812C45.5 22.2812 46.1875 22.1875 44.6562 23.5312C44.3125 23.8125 43.9688 24.125 43.5625 24.4688C41.5938 26.1562 39.0625 28.3125 35.9375 30.9375C32.8438 33.5312 29.5 36.25 25.9062 39.0625C22.3438 41.9062 18.9062 44.4688 15.5625 46.7812C12.25 49.0938 9.40625 50.7812 7.0625 51.8438C4.71875 52.9062 3.1875 52.9688 2.5 52.0625C1.8125 50.8438 1.875 48.9375 2.71875 46.2812C3.5625 43.625 4.9375 40.75 6.84375 37.6562C8.75 34.5625 10.9688 31.7188 13.5 29.125C16.0312 26.5312 18.6562 24.6875 21.375 23.5938C24.0938 22.5 26.6562 22.625 29.0625 24.0312C28.4688 24.7188 30.875 26.1562 31.5938 25.6875C32.125 25.3125 32.5 24.6875 32 24.1875C25.2812 17.5312 16.4062 22.8438 9.71875 30.7188C7.5 33.4062 5.59375 36.2188 4.03125 39.125C2.46875 42.0312 1.40625 44.7188 0.84375 47.1875C0.28125 49.6562 0.40625 51.5312 1.1875 52.8438C2.15625 54.1875 3.96875 54.375 6.625 53.4375C9.3125 52.5 12.4688 50.8125 16.125 48.4062C19.7812 46 23.5312 43.2812 27.4062 40.2188C31.3125 37.1875 34.9375 34.2188 38.3125 31.3438C41.6875 28.4688 44.4375 26.0938 46.5625 24.2188C47.7188 23.2188 48.5938 22.4688 49.1875 21.9375ZM53.3438 18.4062C53.8438 17.9688 54.3438 17.5312 54.875 17.0938C59.7188 12.9688 64.7188 8.8125 69.9688 5.34375C71.0312 4.59375 73.4688 3.3125 72.875 4.5625C72.2812 5.5625 71.4375 6.875 70.4062 8.46875C69.375 10.0625 68.4062 11.5625 67.5 12.9688C66.8438 13.9375 66.375 14.6875 66.0312 15.1875C65.9062 15.4062 65.8125 15.5625 65.7188 15.7188C65.3438 16.4375 65.125 16.6562 64.0938 16.7812C60.8125 17.3438 57.5625 17.9688 54.3438 18.6875C53.9688 18.7812 53.5938 18.8438 53.25 18.9062C52.875 19 52.9062 18.8125 53.3438 18.4062ZM75.6562 30.7812C75.75 30.6875 75.8438 30.5625 75.9375 30.4688C76.9688 29.4375 77.25 29.1562 76.375 30.5312C74.6875 33.4062 72.5312 37.1562 69.9062 41.75C68.125 44.8438 66.6562 47.4375 65.4688 49.5C64.9062 50.5312 65.8125 50.6562 66.25 49.9688C66.3438 49.875 67.0938 48.6562 68.5 46.375C69.9375 44.0938 71.7188 41.25 73.8125 37.8438C75.9375 34.4375 78.0625 30.9688 80.1875 27.4375C80.8125 26.375 81.3438 25.5625 81.8125 24.9688C82.2812 24.375 82.9375 23.6562 83.7812 22.8125C85.8438 20.9062 88.0312 18.7188 90.3125 16.1875C92.625 13.6562 94.7812 10.9062 96.8125 7.96875C98.0938 6.0625 98.7812 4.75 98.875 4.09375C98.6875 2.53125 96.5 2.96875 95.4062 3.90625C94.0625 5 92.4688 6.5625 90.6562 8.59375C88.8438 10.625 87.2188 12.7188 85.8125 14.9062C84.7812 16.5 83.375 18.7812 81.5938 21.75C81 22.7188 80.4688 23.5312 79.9375 24.1562C79.4062 24.7812 78.75 25.4688 77.9375 26.2188C77.2812 26.875 77.1562 26.75 76.8125 26.5625C76.6562 26.4375 76.375 26.3125 75.9688 26.1875C74.4062 25.8438 72.6562 26.25 70.75 27.375C68.8438 28.5 67 29.9688 65.2812 31.75C63.5625 33.5312 62.1875 35.2812 61.1562 36.9688C60.125 38.6562 59.7188 39.875 59.9375 40.6562C60.3125 41.5 61.1562 41.6875 62.4375 41.1562C63.7188 40.6562 65.1875 39.7812 66.875 38.5C68.5625 37.2188 70.1875 35.8438 71.7812 34.4375C73.375 33 74.6562 31.7812 75.6562 30.7812ZM88.9062 15.3438C88.5625 15.6875 88.25 16.0312 87.9062 16.4062C85.8438 18.625 83.875 20.7188 86.6875 16.2188C87.5938 14.8125 88.7188 13.3125 90.0312 11.6562C91.375 10 92.5938 8.5625 93.6875 7.40625C94.6875 6.40625 97.9375 3.5625 95.5312 7.21875C93.5 10.1875 91.2812 12.875 88.9062 15.3438ZM75.75 27.4375C76.3438 27.5625 76.3438 27.7812 75.9375 28.1562C73.1562 30.8125 70.5 33.2188 67.9062 35.375C65.3125 37.5312 63.2812 39 61.7812 39.8438C60.7812 40.375 61.0312 39.6875 61.6562 38.5625C62.3438 37.3438 63.5312 35.8438 65.2188 34.0312C66.9375 32.1875 68.75 30.5938 70.6875 29.25C72.625 27.875 74.3125 27.2812 75.75 27.4375ZM79.2188 39.1875C78.9688 40.0625 79.6875 40.5 80.5312 40.125C81.6562 39.5312 83.375 38.0938 85.1562 36.5C87.1875 34.6562 89.0938 33.0625 89.9688 32.9688C89.6875 34.75 89.8438 36.0312 90.4375 36.7812C91.0312 37.5 92.2812 37.2812 94.1562 36.0938C94.7188 35.7188 94.6562 34.7812 93.8125 35.3125C90.9688 37.2188 91.0312 35.875 91.2188 34.2812C91.3125 33.5625 91.3125 32.9375 91.2188 32.375C91.125 31.7812 90.6875 31.5 89.9375 31.4688C89.4688 31.5 88.6562 31.9375 87.5312 32.7188C86.4375 33.5 85.3125 34.3438 84.1875 35.25C83.0938 36.1562 82.2812 36.8438 81.7812 37.3125C82.5 36.0312 83.3438 34.5938 84.2812 33C85.25 31.4062 86.0938 29.9688 86.875 28.7188C86.9688 28.5312 87.0312 28.3438 87.0312 28.1562V28.0938V28C86.9375 27.7188 86.75 27.5 86.4375 27.4062C86.2812 27.3438 86.125 27.3438 85.9375 27.4062L85.875 27.4375C85.625 27.5 85.2188 27.8125 84.6875 28.4062C84.4375 28.6875 84.4375 29.0938 84.6875 29.4375C84.375 29.9688 84 30.5625 83.5625 31.2812C82.7812 32.625 81.9688 34 81.125 35.4688C80.2812 36.9375 79.625 38.1562 79.2188 39.1875ZM110.062 34.75C109.219 35.2188 108.219 35.625 107.062 35.9688C105.906 36.3125 105.031 36.2812 104.406 35.875C103.812 35.4688 103.906 34.4375 104.688 32.7188C104.812 32.4688 104.812 32.2188 104.656 31.9688C104.406 31.5938 103.969 31.5312 103.594 31.75C100.031 34.2188 97.4688 35.875 95.9062 36.7812C94.3438 37.6875 93.5312 38.0312 93.4375 37.8125C93.375 37.5938 93.8438 37.0312 94.8125 36.0938C95.7812 35.125 97 34.125 98.4062 33.0625C99.8125 32 101.156 31.2188 102.438 30.7188C103.719 30.2188 104.594 30.3125 105.125 31.0312C105.156 31.125 105.094 31.1875 105.062 31.2812C105.031 31.375 104.969 31.4375 104.969 31.5312C105.188 31.9375 105.812 32.3125 106.219 32.1875C106.625 32.0625 106.938 31.6875 106.812 31.2812C106.125 29.6875 104.938 29 103.25 29.2812C101.562 29.5312 99.7812 30.2812 97.9375 31.5625C96.0938 32.8438 94.5938 34.1875 93.4375 35.5938C92.2812 37 91.8438 38.0312 92.1875 38.6875C92.4688 39.1562 93.3438 39.1562 94.8438 38.625C96.375 38.0938 98.75 36.7812 101.969 34.6875C102.562 34.3125 102.594 34.2812 102.562 34.875V35.0312C102.594 36.4375 103.125 37.2188 104.094 37.4062C105.062 37.5625 106.188 37.4375 107.406 37C108.656 36.5312 109.688 36.0625 110.469 35.5938C111.469 34.875 111.188 34.1562 110.062 34.75ZM107.781 39.1875C107.531 40.0625 108.25 40.5 109.094 40.125C110.219 39.5312 111.938 38.0938 113.719 36.5C115.75 34.6562 117.656 33.0625 118.531 32.9688C118.25 34.75 118.406 36.0312 119 36.7812C119.594 37.5 120.844 37.2812 122.719 36.0938C123.281 35.7188 123.219 34.7812 122.375 35.3125C119.531 37.2188 119.594 35.875 119.781 34.2812C119.875 33.5625 119.875 32.9375 119.781 32.375C119.688 31.7812 119.25 31.5 118.5 31.4688C118.031 31.5 117.219 31.9375 116.094 32.7188C115 33.5 113.875 34.3438 112.75 35.25C111.656 36.1562 110.844 36.8438 110.344 37.3125C111.062 36.0312 111.906 34.5938 112.844 33C113.812 31.4062 114.656 29.9688 115.438 28.7188C115.531 28.5312 115.594 28.3438 115.594 28.1562V28.0938V28C115.5 27.7188 115.312 27.5 115 27.4062C114.844 27.3438 114.688 27.3438 114.5 27.4062L114.438 27.4375C114.188 27.5 113.781 27.8125 113.25 28.4062C113 28.6875 113 29.0938 113.25 29.4375C112.938 29.9688 112.562 30.5625 112.125 31.2812C111.344 32.625 110.531 34 109.688 35.4688C108.844 36.9375 108.188 38.1562 107.781 39.1875ZM130.375 28.9062C129.219 28.875 127.906 29.4062 126.5 30.5C125.094 31.5625 123.875 32.8125 122.812 34.2188C121.75 35.625 121.156 36.8438 121.062 37.875C121.031 39.4062 121.594 40.25 122.75 40.4375C123.906 40.625 125.344 40.4375 127 39.8438C128.656 39.25 130.25 38.5625 131.719 37.7812C133.219 36.9688 134.281 36.3438 134.906 35.9062C136.5 34.75 135.469 34.4375 134.75 34.9062C134.406 35.125 133.625 35.5625 132.375 36.1875C131.125 36.7812 129.75 37.375 128.25 37.9688C126.75 38.5625 125.469 38.9062 124.375 39C123.281 39.0938 122.75 38.75 122.75 37.9688C122.812 37.4375 123.062 36.8438 123.469 36.1875C123.906 35.5 124.281 34.9375 124.625 34.5312C125.094 34.9688 125.875 35 126.906 34.5938C127.969 34.1875 129 33.5625 129.969 32.75C130.938 31.9375 131.562 31.1562 131.781 30.4062C132 29.6562 131.531 29.1562 130.375 28.9062ZM129.75 30.625C130.531 30.4062 130.531 30.5312 130.125 31C129.656 31.4688 129 32 128.125 32.5938C127.25 33.1562 126.5 33.5625 125.906 33.7812C123.625 34.5312 128.812 30.9375 129.75 30.625ZM200.312 21.9375C200.344 21.9062 200.344 21.9062 200.375 21.9062C200.75 21.5312 201.031 21.3125 201.625 21.1875L202.844 20.9062C206.656 20 210.5 19.1875 214.344 18.4062C215.094 18.25 215.219 18.375 214.75 19.0312C214.281 19.7812 213.781 20.5312 213.312 21.2812C207.719 29.8438 202.344 38.5625 197.188 47.4375C196.125 49.7188 196.969 50.5312 197.625 50.2812C198.125 50.125 198.219 49.7812 198.219 49.3125C198.25 49.0312 198.312 48.75 198.438 48.4688C202.75 41.125 207.25 33.875 211.906 26.6875L216.875 18.9062C216.906 18.8125 216.969 18.7188 217.031 18.6562C217.312 18.0625 217.594 17.75 218.312 17.625C218.375 17.625 218.438 17.625 218.5 17.5938C220.031 17.3125 225.844 16.3125 226.719 16.7188C227.562 17.0938 228.031 16.4375 227.125 15.875C225.719 15.2188 220.438 15.9062 218.875 16.1875C218.5 16.2188 218.531 16.0938 218.75 15.8438C218.812 15.7812 218.875 15.6875 218.938 15.5938C219.156 15.25 219.531 14.6875 220.062 13.8438C221.156 12.1875 222.406 10.2812 223.781 8.125C225.156 5.9375 226.094 4.3125 226.594 3.21875C227.906 0.21875 221.812 2.90625 220.281 3.90625C214.781 7.5625 209.406 12 204.25 16.375C203.25 17.2188 202.25 18.0625 201.281 18.875L201.219 18.9375C200.375 19.6562 200.094 19.8438 198.969 20.0625C198.812 20.0938 198.688 20.125 198.531 20.1562C194.938 20.9375 191.375 21.75 187.812 22.625C183.156 23.6562 187.312 25.8125 187.625 24.4688C189.281 24.0938 190.438 23.7812 191.688 23.5C192.312 23.3438 193.031 23.1875 193.875 22.9688C194.188 22.9062 194.469 22.8438 194.75 22.7812C196.625 22.2812 197.312 22.1875 195.781 23.5312C195.438 23.8125 195.094 24.125 194.688 24.4688C192.719 26.1562 190.188 28.3125 187.062 30.9375C183.969 33.5312 180.625 36.25 177.031 39.0625C173.469 41.9062 170.031 44.4688 166.688 46.7812C163.375 49.0938 160.531 50.7812 158.188 51.8438C155.844 52.9062 154.312 52.9688 153.625 52.0625C152.938 50.8438 153 48.9375 153.844 46.2812C154.688 43.625 156.062 40.75 157.969 37.6562C159.875 34.5625 162.094 31.7188 164.625 29.125C167.156 26.5312 169.781 24.6875 172.5 23.5938C175.219 22.5 177.781 22.625 180.188 24.0312C179.594 24.7188 182 26.1562 182.719 25.6875C183.25 25.3125 183.625 24.6875 183.125 24.1875C176.406 17.5312 167.531 22.8438 160.844 30.7188C158.625 33.4062 156.719 36.2188 155.156 39.125C153.594 42.0312 152.531 44.7188 151.969 47.1875C151.406 49.6562 151.531 51.5312 152.312 52.8438C153.281 54.1875 155.094 54.375 157.75 53.4375C160.438 52.5 163.594 50.8125 167.25 48.4062C170.906 46 174.656 43.2812 178.531 40.2188C182.438 37.1875 186.062 34.2188 189.438 31.3438C192.812 28.4688 195.562 26.0938 197.688 24.2188C198.844 23.2188 199.719 22.4688 200.312 21.9375ZM204.469 18.4062C204.969 17.9688 205.469 17.5312 206 17.0938C210.844 12.9688 215.844 8.8125 221.094 5.34375C222.156 4.59375 224.594 3.3125 224 4.5625C223.406 5.5625 222.562 6.875 221.531 8.46875C220.5 10.0625 219.531 11.5625 218.625 12.9688C217.969 13.9375 217.5 14.6875 217.156 15.1875C217.031 15.4062 216.938 15.5625 216.844 15.7188C216.469 16.4375 216.25 16.6562 215.219 16.7812C211.938 17.3438 208.688 17.9688 205.469 18.6875C205.094 18.7812 204.719 18.8438 204.375 18.9062C204 19 204.031 18.8125 204.469 18.4062ZM220.062 27.625C221.156 27.6562 222.188 26.625 222.312 25.6562C222.344 25.4375 222.312 25.1875 222.219 24.9062C222.062 24.4375 221.594 24.25 221.125 24.375C220.781 24.7812 220.719 25.0312 220.625 25.2812C220.562 25.625 220.406 26.0625 219.344 27C219.312 27.4688 219.594 27.625 220.062 27.625ZM208.312 44.3125C201.75 49.0938 196.312 53.625 192.031 57.9688C192 58.0312 191.938 58.0938 191.875 58.125C191.344 58.6562 190.625 59.4375 189.781 60.4688C188.938 61.5 188.281 62.5312 187.844 63.5625C187.375 64.625 187.531 65.4688 188.25 66.0938C188.656 66.4375 189.281 66.5625 190.094 66.5312C196.281 66.1875 203.875 56.2812 210.156 46.4062C211.75 43.9062 211.906 43.7188 213.906 42.25C214.062 42.0938 214.281 41.9375 214.5 41.7812C217.094 39.7812 219.562 38.1875 221.875 37C222.906 36.4062 222.562 35.7812 221.344 36.2812C219.438 37.1875 217.844 38.0312 216.562 38.8125C214.531 40.0938 213.75 40.4375 215 38.4688C215.594 37.5312 216.125 36.625 216.625 35.75C216.844 35.3438 217.062 34.9688 217.281 34.5938C217.5 34.1875 217.75 33.7812 217.969 33.4062C218.625 32.25 219.219 31.2188 219.781 30.3125C219.812 30.2188 220.031 29.875 220.062 29.5312C219.75 27.9688 218.188 28.6562 217.062 30.3125C216.281 31.4688 216.406 32.125 216.5 32.25C216.594 32.4062 216.5 32.5938 216.219 33C216.125 33.1875 215.969 33.4375 215.812 33.7188C215.344 34.5 214.875 35.2812 214.406 36.0938C213.688 37.2812 212.969 38.5312 212.188 39.8125C212.031 40.0938 211.906 40.3125 211.781 40.5312C210.688 42.4688 210.531 42.7188 208.312 44.3125ZM206 49.6875C203.188 54 200.375 57.625 197.594 60.5312C194.781 63.4375 192.125 65.0312 189.625 65.25C187.219 65.375 192.344 60.125 193.156 59.25L193.25 59.1562C196.594 55.625 200.844 51.875 206 47.9062C208.344 46.1562 208.062 46.7188 206.094 49.5625C206.062 49.5938 206.031 49.6562 206 49.6875ZM227.062 39.5625C227.656 38.9375 228.375 37.7812 228.781 37.0312C229.031 36.5312 229.281 36.5625 229.562 36.8125C229.969 37.0938 230.75 37.4375 232.344 36.8125C233.844 36.125 233.594 34.9375 232.781 35.6875C231.875 36.5312 229.75 36.5938 229.625 34.6875C229.562 32.0625 227.188 31.4688 226.719 32.4375C226.375 33.4375 227.094 34.8438 227.844 35.5938C228.062 35.75 228.031 35.875 227.906 36.0312C227.875 36.0938 227.812 36.1875 227.75 36.2812C227.094 37.625 225.906 39.2188 225.062 39.7188C222.469 41.1562 220.219 38.0938 226.312 31.0625C226.438 30.9062 226.594 30.9062 226.75 30.9062C227.094 30.9375 227.594 30.8438 228.469 29.9375C228.938 28.7812 228.312 28.375 227.344 28.7188C226.75 28.875 225.969 29.5 225 30.5625C222.438 33.5312 221.125 35.9688 221.094 37.8125C221.062 39.6562 221.656 40.75 222.938 41.125C224.219 41.5 225.594 40.9688 227.062 39.5625ZM236.188 32.9688C237.469 31.3125 236.969 30.875 236.312 30.8125C235.812 30.7188 235 31.0625 234.594 31.6875C234.5 31.8438 234.406 32 234.312 32.1875C233.094 34.125 230.625 38.0625 233 39.6562C233.469 39.9062 234.062 40.0312 234.719 40C236.562 39.8438 238.469 39.125 240.438 37.8438C242.406 36.5625 244.125 35.2812 245.594 34C245.812 33.8438 246 33.6875 246.156 33.5312C246.188 33.5 246.219 33.5 246.25 33.4688C247.5 32.375 247.719 32.3438 247.5 33.8125C246.875 38.7812 251.656 38.0625 256 35.8125C256.906 35.375 256.906 34.4062 255.656 35.0312C251.812 36.6562 248.156 37.9688 249.438 32.4688C249.656 31.7188 249.75 31.0938 249.719 30.5938C249.062 29.5625 246.938 30.9375 245.844 31.9062C245.625 32.0625 245.406 32.25 245.125 32.4688C243.656 33.6875 241.938 35 239.906 36.4062C237.875 37.8125 236.062 38.5938 234.469 38.75C232.469 38.75 234.594 34.6875 235.656 33.25C235.688 33.125 235.875 33.0938 236 33.0625C236.094 33.0312 236.156 33 236.188 32.9688ZM272.125 34.75C271.281 35.2188 270.281 35.625 269.125 35.9688C267.969 36.3125 267.094 36.2812 266.469 35.875C265.875 35.4688 265.969 34.4375 266.75 32.7188C266.875 32.4688 266.875 32.2188 266.719 31.9688C266.469 31.5938 266.031 31.5312 265.656 31.75C262.094 34.2188 259.531 35.875 257.969 36.7812C256.406 37.6875 255.594 38.0312 255.5 37.8125C255.438 37.5938 255.906 37.0312 256.875 36.0938C257.844 35.125 259.062 34.125 260.469 33.0625C261.875 32 263.219 31.2188 264.5 30.7188C265.781 30.2188 266.656 30.3125 267.188 31.0312C267.219 31.125 267.156 31.1875 267.125 31.2812C267.094 31.375 267.031 31.4375 267.031 31.5312C267.25 31.9375 267.875 32.3125 268.281 32.1875C268.688 32.0625 269 31.6875 268.875 31.2812C268.188 29.6875 267 29 265.312 29.2812C263.625 29.5312 261.844 30.2812 260 31.5625C258.156 32.8438 256.656 34.1875 255.5 35.5938C254.344 37 253.906 38.0312 254.25 38.6875C254.531 39.1562 255.406 39.1562 256.906 38.625C258.438 38.0938 260.812 36.7812 264.031 34.6875C264.625 34.3125 264.656 34.2812 264.625 34.875V35.0312C264.656 36.4375 265.188 37.2188 266.156 37.4062C267.125 37.5625 268.25 37.4375 269.469 37C270.719 36.5312 271.75 36.0625 272.531 35.5938C273.531 34.875 273.25 34.1562 272.125 34.75ZM284.188 37.5938C283.688 37.5 285.156 33.5625 285.688 32C285.781 31.7188 285.875 31.5312 285.906 31.4375C286.438 29.8438 286.281 28.8438 285.438 28.4375C283.656 27.8125 278.094 32.6562 274 36.2188C273.844 36.3438 273.719 36.4688 273.562 36.5938C272.469 37.5625 272.125 37.8125 273.125 36.3125C273.469 35.7812 273.844 35.2188 274.219 34.6562C275.875 32.3125 277.344 29.9688 278.625 27.6562C279.562 24.9062 277.094 26.5938 276.719 26.9688C276.375 27.3438 276.281 27.6875 276.562 27.9688L276.594 28C276.688 28.0938 276.656 28.0938 276.625 28.1875C275.844 29.4062 275.062 30.5938 274.219 31.7812C272.594 34 271.156 36.375 269.906 38.9062C269.438 39.875 269.5 40.5312 270.125 40.875C270.969 41.1875 273.5 38.9688 274.656 37.875C274.875 37.7188 275.031 37.5938 275.125 37.5C275.219 37.4062 275.438 37.1875 275.781 36.875C278.156 34.7812 285.375 28.0625 284.656 30.25C284.562 30.5312 284.406 30.875 284.25 31.2812C283.281 33.625 281.562 37.8438 283.844 38.6875C284.375 38.8438 285.094 38.5938 286 37.875C286.906 37.1562 287.875 36.3125 288.844 35.3438C289.625 34.5625 290.344 33.9375 290.969 33.4062C291 33.375 291.062 33.3438 291.094 33.3125C291.844 32.6875 292 32.5938 291.969 33.4688C291.75 35.375 292.031 36.6875 292.812 37.4375C293.719 38.2812 295.219 37.75 298.312 35.8438C299.375 35.2188 298.844 34.5312 297.969 35.0312C295.625 36.4375 294.25 36.9375 293.906 36.5938C293.531 36.2188 293.562 35.2812 293.688 34.25C293.781 33.4375 293.75 32.6875 293.656 32.0312C293.562 31.3438 293.188 30.9375 292.5 30.8438C291.781 30.875 290.875 31.3438 289.781 32.3125C288.719 33.2812 287.688 34.2812 286.688 35.375C285.469 36.6562 284.531 37.625 284.188 37.5938ZM305.344 24.625C304.844 24.5938 304.469 24.9062 304.438 25.375C304.438 25.4062 304.344 25.4688 304.188 25.5C303.875 25.6875 303.344 25.9062 303.469 26.25C304.094 27.75 307.688 24.75 305.344 24.625ZM298.375 39.4688C299.312 39.4688 300.875 39.1562 303.031 38.5312C305.219 37.9062 307 37.2188 308.344 36.4688C309.156 35.9062 308.719 35.2188 308.062 35.5938C307.844 35.7188 307.219 35.9688 306.125 36.375C305.062 36.75 303.875 37.0938 302.594 37.4375C301.312 37.7812 300.281 37.9062 299.469 37.8125C298.688 37.7188 298.469 37.2812 298.812 36.4688C299.281 35.5312 299.969 34.375 300.875 33C301.812 31.5938 302.688 30.3438 303.469 29.2188C303.5 29.1562 303.562 29.0938 303.594 29.0625C303.875 28.6875 304.125 28.2812 303.844 27.8125C303.281 26.9375 300.719 28.7812 301.219 29.7188C301.156 29.7812 301.094 29.875 301 30.0312C299.625 31.9062 294.312 39.4688 298.375 39.4688Z" fill="black"/>
</svg>
