<svg width="108" height="95" viewBox="0 0 108 95" fill="none" xmlns="http://www.w3.org/2000/svg">
<g clip-path="url(#clip0_310_118)">
<path d="M52.1344 21.0568C58.9805 19.3262 65.5986 19.881 71.9381 22.9447C78.2607 26.0002 82.7178 30.8359 85.6639 37.1289C85.6639 36.8391 85.6639 36.5493 85.6639 36.2595C85.6639 26.1409 85.6723 16.0141 85.6639 5.89558C85.6639 2.26052 83.3425 0 79.6283 0C55.1143 0 30.6003 0 6.09473 0C2.29608 0 0 2.25224 0 5.96182C0 19.0116 0 32.0614 0 45.1111C0 48.9118 2.27075 51.1475 6.1285 51.1475C14.3083 51.1475 22.4965 51.1475 30.6763 51.1475C31.0561 51.1475 31.436 51.1475 31.8243 51.1475C29.8659 34.6862 41.8274 23.6568 52.1344 21.0568ZM37.3112 5.53953C48.4371 5.53953 59.5123 5.53953 70.6719 5.53953C70.6719 6.68221 70.6719 7.83317 70.6719 9.06694C59.5798 9.06694 48.4793 9.06694 37.3112 9.06694C37.3112 7.92426 37.3112 6.79813 37.3112 5.53953ZM37.2944 12.851C52.1429 12.851 66.9408 12.851 81.8399 12.851C81.8399 13.9772 81.8399 15.1364 81.8399 16.3702C67.042 16.3702 52.2188 16.3702 37.2944 16.3702C37.2944 15.1612 37.2944 14.0351 37.2944 12.851ZM29.7393 43.7614C22.3614 43.7614 14.9836 43.7614 7.52978 43.7614C7.52978 42.627 7.52978 41.4761 7.52978 40.2589C14.9245 40.2589 22.3023 40.2589 29.7393 40.2589C29.7393 41.4264 29.7393 42.5525 29.7393 43.7614ZM6.13694 36.541C4.33891 36.541 3.73112 35.92 3.73112 34.1066C3.73112 29.4282 3.73112 24.7416 3.73112 20.0632C3.73112 15.3848 3.73112 10.6982 3.73112 6.01979C3.73112 4.2892 4.36423 3.6599 6.09473 3.6599C14.4349 3.65162 22.7751 3.65162 31.1152 3.6599C32.871 3.6599 33.521 4.28092 33.521 5.97838C33.5295 15.3765 33.5295 24.783 33.521 34.1811C33.521 35.9034 32.8879 36.541 31.1574 36.541C22.8173 36.541 14.4771 36.541 6.13694 36.541Z" fill="#071142"/>
<path d="M83.7985 47.5453C83.8154 34.5038 72.985 23.7891 59.7488 23.7559C46.2931 23.7228 35.3952 34.3299 35.3867 47.4542C35.3783 60.5702 46.234 71.2684 59.5377 71.2518C72.9259 71.2352 83.7732 60.6282 83.7985 47.5453ZM59.504 67.6002C48.1755 67.5257 39.0503 58.4918 39.1094 47.3962C39.1685 36.2592 48.395 27.3579 59.8416 27.4076C71.0181 27.4572 80.118 36.5739 80.0674 47.6612C80.0252 58.6492 70.7227 67.6664 59.504 67.6002Z" fill="#071142"/>
<path d="M106.666 88.9554C100.487 82.9108 94.3162 76.8496 88.1455 70.7967C87.9598 70.6145 87.7572 70.4572 87.6137 70.333C86.0352 71.8897 84.5073 73.3967 82.8696 75.0031C83.03 75.177 83.2242 75.4088 83.4436 75.6158C89.589 81.6439 95.7344 87.672 101.88 93.7C102.099 93.9153 102.319 94.1306 102.564 94.3128C104.421 95.6873 107.038 94.909 107.797 92.7478C108.338 91.2325 107.763 90.0319 106.666 88.9554Z" fill="#071142"/>
<path d="M83.0638 62.2764C80.8352 65.6796 77.9989 68.3707 74.7827 70.4987C75.9645 71.7076 77.0788 72.8503 78.0918 73.8936C80.9112 71.1529 83.7222 68.4204 86.4995 65.7293C85.4274 64.6445 84.2962 63.5101 83.0638 62.2764Z" fill="#071142"/>
<path d="M7.55518 27.1513C8.43309 26.3398 9.20126 25.5284 10.0792 24.8494C10.974 24.1621 11.9701 23.5991 12.9239 22.9863C10.4337 19.4258 10.6447 15.6417 13.4304 12.9837C16.0304 10.5079 20.0992 10.2346 23.0284 12.3461C24.4887 13.3977 25.4173 14.8054 25.8563 16.536C26.464 18.9455 25.7718 21.0818 24.4296 22.8621C26.2699 24.2946 28.0257 25.6691 29.7309 27.0023C29.7309 20.5519 29.7309 13.9939 29.7309 7.37793C22.3193 7.37793 14.9668 7.37793 7.55518 7.37793C7.55518 14.0105 7.55518 20.5767 7.55518 27.1513Z" fill="#071142"/>
<path d="M18.5629 25.5782C14.0805 25.5948 10.1046 28.526 8.7793 32.8317C15.3468 32.8317 21.8973 32.8317 28.4648 32.8317C27.0973 28.4597 23.1298 25.5616 18.5629 25.5782Z" fill="#071142"/>
<path d="M22.3448 18.3658C22.3954 16.3785 20.7662 14.6811 18.7487 14.6231C16.7143 14.5569 14.9838 16.1301 14.9078 18.1174C14.8234 20.1461 16.4948 21.8849 18.5546 21.9263C20.5805 21.9595 22.2941 20.3448 22.3448 18.3658Z" fill="#071142"/>
<path d="M59.7065 31.0597C50.4125 31.0183 42.8489 38.363 42.8321 47.4465C42.8152 56.5051 50.2774 63.9077 59.4702 63.9491C68.7642 63.9905 76.3278 56.6459 76.3446 47.5624C76.37 38.5037 68.9077 31.1011 59.7065 31.0597Z" fill="#071142"/>
</g>
<defs>
<clipPath id="clip0_310_118">
<rect width="108" height="95" fill="white"/>
</clipPath>
</defs>
</svg>
