<svg width="56" height="56" viewBox="0 0 56 56" fill="none" xmlns="http://www.w3.org/2000/svg">
<g clip-path="url(#clip0_282_309)">
<path d="M56.0004 26.357C56.0004 27.4501 56.0004 28.5446 56.0004 29.6377C55.9677 29.812 55.9173 29.9862 55.9051 30.1618C55.7363 32.6857 55.2096 35.1347 54.3481 37.5074C49.4538 50.9953 35.235 58.5954 21.2911 55.1881C6.90764 51.6732 -2.31205 37.2787 0.508026 22.7455C1.58869 17.1736 4.11478 12.3533 8.10399 8.32515C12.2865 4.10102 17.3128 1.44239 23.1843 0.429581C24.2391 0.247166 25.3062 0.139623 26.3678 -0.00195312C27.4607 -0.00195312 28.555 -0.00195312 29.6479 -0.00195312C30.3869 0.0865317 31.1273 0.161403 31.8637 0.264863C37.3827 1.04489 42.2634 3.24884 46.4404 6.93934C51.3606 11.286 54.4379 16.6931 55.5703 23.1783C55.754 24.232 55.8588 25.2979 56.0004 26.357ZM27.9901 52.7132C41.6046 52.7282 52.7162 41.624 52.7202 28.0014C52.7243 14.4007 41.6672 3.31827 28.0541 3.28015C14.4478 3.24204 3.32402 14.3326 3.2968 27.9647C3.26958 41.5791 14.3648 52.6982 27.9901 52.7132Z" fill="#071142"/>
<path d="M30.1747 20.5957C30.1747 22.4253 30.1856 24.2549 30.1665 26.0831C30.1624 26.4997 30.2727 26.7679 30.6225 27.0265C33.0097 28.7908 35.3752 30.5863 37.7543 32.3628C38.556 32.9618 38.9493 33.7282 38.7138 34.7193C38.3518 36.2439 36.6137 36.8565 35.3099 35.9104C33.8155 34.8254 32.3523 33.6996 30.8756 32.5915C29.5431 31.5923 28.2161 30.5863 26.8755 29.598C26.2168 29.112 25.8534 28.4763 25.852 27.6609C25.8452 23.4041 25.8411 19.1487 25.8547 14.8919C25.8588 13.7647 26.5883 12.8935 27.605 12.7042C28.6054 12.5177 29.6194 13.0446 29.9814 13.9961C30.1134 14.3419 30.1638 14.7353 30.1679 15.1083C30.1842 16.9365 30.1747 18.7661 30.1747 20.5957Z" fill="#071142"/>
</g>
<defs>
<clipPath id="clip0_282_309">
<rect width="56" height="56" fill="white"/>
</clipPath>
</defs>
</svg>
