<svg width="97" height="97" viewBox="0 0 97 97" fill="none" xmlns="http://www.w3.org/2000/svg">
<g clip-path="url(#clip0_310_170)">
<path d="M5.23096 13.4736C19.2968 13.4736 33.1877 13.4736 47.166 13.4736C47.166 32.9588 47.166 52.3483 47.166 71.8595C33.1789 71.8595 19.2531 71.8595 5.23096 71.8595C5.23096 52.3831 5.23096 32.9935 5.23096 13.4736ZM13.0424 26.8257C14.1358 26.8257 15.2205 26.7909 16.3139 26.8344C17.5298 26.8778 18.1596 26.3479 18.1684 25.1404C18.1859 22.9773 18.1859 20.8055 18.1684 18.6424C18.1596 17.5218 17.5298 16.9832 16.4189 16.9832C14.1271 16.9832 11.8265 16.9745 9.53468 16.9919C8.42376 17.0006 7.86393 17.5653 7.87267 18.7033C7.89017 20.8663 7.88142 23.0381 7.88142 25.2012C7.88142 26.3566 8.47624 26.8431 9.60466 26.8257C10.7506 26.8083 11.8965 26.817 13.0424 26.8257ZM12.9724 44.9122C11.8265 44.9122 10.6806 44.9209 9.52593 44.9122C8.47625 44.9035 7.89017 45.3987 7.89017 46.4498C7.87267 48.7345 7.79395 51.0192 7.96015 53.2865C7.99514 53.8165 8.88737 54.6852 9.42971 54.7199C11.774 54.885 14.1358 54.8068 16.4889 54.7807C17.5998 54.772 18.1684 54.1205 18.1771 53.0346C18.1946 50.8715 18.1946 48.6998 18.1684 46.5367C18.1509 45.4421 17.5735 44.8774 16.4189 44.9035C15.273 44.9383 14.1183 44.9122 12.9724 44.9122ZM13.0074 40.8119C14.1008 40.8119 15.1855 40.7858 16.2789 40.8206C17.4686 40.8553 18.1509 40.3167 18.1684 39.1266C18.1946 36.9635 18.1946 34.7917 18.1684 32.6287C18.1596 31.5428 17.5823 30.9347 16.4539 30.9347C14.1533 30.926 11.8615 30.926 9.56092 30.9347C8.45 30.926 7.87267 31.4993 7.88142 32.62C7.88142 34.7831 7.88142 36.9548 7.88142 39.1179C7.88142 40.2385 8.42376 40.8119 9.56092 40.8032C10.7068 40.8032 11.8527 40.8119 13.0074 40.8119ZM13.0511 68.654C14.1446 68.654 15.2292 68.6279 16.3227 68.6627C17.5298 68.6974 18.1684 68.1675 18.1771 66.96C18.1859 64.7969 18.2908 62.6252 18.1071 60.4795C18.0547 59.8974 17.1449 58.9592 16.5763 58.9158C14.2408 58.7333 11.879 58.8289 9.53468 58.8376C8.40627 58.8376 7.88142 59.437 7.88142 60.5576C7.89892 62.6686 7.89892 64.7709 7.87267 66.8818C7.85518 68.0807 8.38002 68.6887 9.62216 68.6627C10.7593 68.6366 11.9052 68.654 13.0511 68.654ZM32.6541 22.5864C29.0414 22.5864 25.4287 22.5951 21.816 22.5864C20.8888 22.5864 20.0141 22.6819 19.9878 23.8547C19.9528 25.097 20.8363 25.3228 21.851 25.3228C28.9627 25.3228 36.0656 25.3228 43.1772 25.3228C44.1919 25.3228 45.1191 25.097 45.1191 23.9068C45.1191 22.6819 44.1482 22.569 43.151 22.569C39.652 22.5951 36.153 22.5864 32.6541 22.5864ZM32.6453 53.1736C36.153 53.1736 39.652 53.1562 43.1597 53.1823C44.1744 53.191 45.1279 53.0259 45.1191 51.8271C45.1104 50.663 44.1744 50.4285 43.151 50.4285C36.0831 50.4372 29.0239 50.4372 21.956 50.4285C20.9588 50.4285 20.0053 50.5935 20.0053 51.8184C20.0053 53.0694 20.9675 53.1736 21.9647 53.1736C25.5249 53.1736 29.0851 53.1736 32.6453 53.1736ZM32.4441 67.1598C35.9519 67.1598 39.4508 67.1511 42.9585 67.1685C43.9995 67.1685 45.0929 67.0816 45.1191 65.7959C45.1454 64.4755 44.0519 64.4147 43.011 64.4147C36.0568 64.4234 29.1114 64.4234 22.1572 64.4234C21.1512 64.4234 20.0316 64.38 20.0141 65.7525C19.9966 67.1077 21.0813 67.1598 22.1047 67.1598C25.5512 67.1598 28.9977 67.1598 32.4441 67.1598ZM32.6453 36.5031C29.1376 36.5031 25.6299 36.4944 22.1309 36.5031C21.1425 36.5031 20.0228 36.4423 20.0053 37.8583C19.9878 39.283 21.1075 39.2395 22.1047 39.2395C29.0589 39.2482 36.0131 39.2395 42.9673 39.2482C43.982 39.2482 45.1104 39.2308 45.1191 37.893C45.1279 36.5639 44.0345 36.5031 42.9935 36.5031C39.5383 36.5118 36.0918 36.5031 32.6453 36.5031ZM26.4434 18.0083C24.8339 18.0083 23.2069 17.8867 21.6236 18.0691C21.0288 18.1386 20.5214 18.9204 19.9791 19.3809C20.5302 19.8326 21.055 20.6492 21.6236 20.6665C24.7814 20.7968 27.948 20.7968 31.1058 20.6752C31.6919 20.6492 32.6366 19.9629 32.7503 19.433C32.9865 18.3645 32.068 18.0083 31.097 18.0083C29.5487 17.9996 27.9917 18.0083 26.4434 18.0083ZM26.3647 34.6614C28.0267 34.6614 29.7062 34.7657 31.3507 34.6006C31.8756 34.5485 32.3392 33.784 32.829 33.3497C32.3567 32.8806 31.9018 32.0206 31.4207 32.0032C28.0967 31.8816 24.7639 31.8816 21.4487 31.9945C20.95 32.0119 20.4777 32.8371 19.9878 33.2889C20.5127 33.7493 20.9938 34.5311 21.5624 34.6006C23.1369 34.7831 24.7639 34.6701 26.3647 34.6614ZM26.5571 59.8974C24.9476 59.8974 23.3293 59.7845 21.7373 59.9582C21.1162 60.0277 20.189 60.6358 20.0666 61.157C19.8129 62.2169 20.7314 62.6165 21.6936 62.6252C24.8514 62.6425 28.018 62.6947 31.1758 62.573C31.7443 62.547 32.6628 61.7912 32.759 61.2613C32.9602 60.158 31.998 59.9061 31.0446 59.9061C29.54 59.8974 28.0442 59.8974 26.5571 59.8974ZM26.321 48.665C27.9217 48.665 29.5225 48.6737 31.1233 48.665C32.103 48.665 32.9777 48.248 32.7503 47.2143C32.6366 46.693 31.7006 46.0068 31.1145 45.9894C27.9742 45.8678 24.8251 45.8678 21.6848 45.9894C21.0988 46.0155 20.5477 46.7799 19.9791 47.2056C20.5477 47.6921 21.0725 48.5173 21.7023 48.6042C23.2156 48.804 24.7814 48.665 26.321 48.665Z" fill="#071142"/>
<path d="M75.6649 91.9179C76.9071 91.9179 78.0442 91.9005 79.1814 91.9266C80.1699 91.9439 81.0971 91.6051 80.9134 90.5801C80.8172 90.0241 79.785 89.2596 79.1639 89.2423C74.3353 89.1293 69.5068 89.1814 64.6782 89.1728C64.1184 89.1728 63.5585 89.1206 62.8412 89.0859C62.8412 87.4527 62.7975 85.9238 62.85 84.4035C62.9025 82.9615 62.3077 82.31 60.8293 82.31C52.5543 82.3273 44.2705 82.3273 35.9955 82.31C34.5346 82.31 33.8873 82.9441 33.9136 84.3775C33.9398 85.9064 33.9223 87.4353 33.9223 89.1728C31.2631 89.1728 28.7526 89.1728 26.2421 89.1728C23.5391 89.1728 20.8362 89.1728 18.1332 89.1728C17.0661 89.1728 15.8764 89.1467 15.8852 90.6061C15.8939 92.0047 17.0573 91.9092 18.0458 91.9092C19.1304 91.9092 20.2151 91.9092 21.2473 91.9092C22.2183 95.358 21.0199 96.9738 17.6346 96.9824C14.9317 96.9911 12.2287 97.0085 9.5258 96.9738C7.15525 96.9477 6.19303 95.9834 6.19303 93.6119C6.17554 89.0425 6.19303 84.473 6.20178 79.9123C6.20178 79.7473 6.25426 79.5822 6.3155 79.1826C6.95406 79.1826 7.62761 79.1826 8.29241 79.1826C21.9121 79.1826 35.5406 79.1826 49.1603 79.1826C53.3678 79.1826 55.1085 77.4539 55.1173 73.2493C55.126 69.4357 55.1173 65.6308 55.1173 61.5652C57.2954 61.5652 59.2898 61.5739 61.2842 61.5652C67.2587 61.5305 73.2419 61.4696 79.2164 61.461C85.4445 61.4523 89.0397 64.8837 89.8357 71.0341C90.798 78.479 90.8242 85.9412 90.7717 93.4207C90.7542 95.8705 89.8008 96.8261 87.3165 96.8608C84.7885 96.8956 82.2605 96.8695 79.7325 96.8695C76.0148 96.8608 75.1838 95.9139 75.6649 91.9179ZM76.1548 79.5735C78.0442 79.5735 79.9424 79.6083 81.8319 79.5648C85.3746 79.478 87.6751 76.6547 87.2815 72.9279C86.8966 69.2446 84.1587 66.9686 80.7035 67.6201C76.5397 68.4019 72.3934 69.2793 68.2471 70.1915C65.4742 70.7996 64.3108 72.8932 65.1068 75.6035C65.8066 77.9925 67.766 79.5214 70.3028 79.5735C72.2535 79.617 74.2041 79.5822 76.1548 79.5735Z" fill="#071142"/>
<path d="M55.2485 37.3986C61.0218 37.3986 66.6464 37.2075 72.2535 37.4681C75.6212 37.6245 78.1492 39.7094 79.0065 42.967C80.3536 48.1359 81.3246 53.4002 82.488 58.7689C73.3207 58.7689 64.3458 58.7689 55.2485 58.7689C55.2485 51.6715 55.2485 44.6263 55.2485 37.3986Z" fill="#071142"/>
<path d="M14.4682 8.91298C14.4682 9.55583 14.4682 9.99887 14.4682 10.6417C11.2229 10.6417 8.02137 10.6417 4.81107 10.6417C2.56299 10.6417 2.37929 10.8241 2.37929 13.1175C2.37929 32.8198 2.37929 52.5222 2.37929 72.2245C2.37929 74.4831 2.59798 74.709 4.82857 74.709C19.0868 74.709 33.3451 74.709 47.6034 74.709C49.659 74.709 50.0177 74.3615 50.0177 72.32C50.0264 52.5569 50.0264 32.8025 50.0177 13.0394C50.0177 10.9458 49.7115 10.6417 47.6471 10.633C44.4368 10.6243 41.2353 10.633 37.9463 10.633C37.9113 10.0249 37.885 9.59058 37.85 9.09541C38.1824 9.02592 38.4536 8.92167 38.7248 8.92167C42.4074 8.91298 46.0813 8.89561 49.764 8.91298C51.6797 8.92167 52.3357 9.56452 52.3532 11.5104C52.3882 15.7323 52.362 19.963 52.362 24.1849C52.362 40.3429 52.362 56.5095 52.362 72.6675C52.362 76.1163 52.0296 76.4377 48.4956 76.4377C33.3714 76.4377 18.2558 76.4377 3.13157 76.4377C0.50735 76.4551 0 75.9512 0 73.3625C0 52.9131 0 32.4724 0 12.023C0 9.38209 0.47236 8.91298 3.08783 8.9043C6.81423 8.91298 10.5494 8.91298 14.4682 8.91298Z" fill="#071142"/>
<path d="M35.0685 10.5724C29.0766 10.5724 23.3033 10.5724 17.3026 10.5724C17.3026 9.08695 17.1101 7.59277 17.3813 6.19415C17.5125 5.52524 18.4222 4.84765 19.1395 4.48279C19.6906 4.20481 20.4866 4.39592 21.1777 4.39592C22.3236 4.40461 22.9446 3.91813 23.1633 2.73669C23.4957 0.912402 24.5542 0.0176321 26.1287 0.000257956C27.7207 -0.0171162 28.7967 0.842905 29.1728 2.65851C29.4002 3.78783 29.8901 4.33511 31.0885 4.40461C35.086 4.64785 35.0773 4.66522 35.0685 8.66997C35.0685 9.28675 35.0685 9.89485 35.0685 10.5724Z" fill="#071142"/>
<path d="M36.7827 89.0607C36.7827 87.7663 36.7827 86.5327 36.7827 85.1602C44.4629 85.1602 52.1344 85.1602 59.9458 85.1602C59.9458 86.359 59.9458 87.636 59.9458 89.0607C52.3006 89.0607 44.5854 89.0607 36.7827 89.0607Z" fill="#071142"/>
<path d="M96.9998 49.5771C96.9998 50.9584 96.9998 52.2441 96.9998 53.7383C94.428 54.1726 91.8563 54.5983 89.1621 55.05C89.1621 53.1823 89.1621 51.4449 89.1621 49.5771C91.6901 49.5771 94.2356 49.5771 96.9998 49.5771Z" fill="#071142"/>
<path d="M15.2817 19.833C15.2817 21.2403 15.2817 22.5347 15.2817 23.9594C13.7946 23.9594 12.3338 23.9594 10.7593 23.9594C10.7593 22.6129 10.7593 21.2751 10.7593 19.833C12.2638 19.833 13.7246 19.833 15.2817 19.833Z" fill="#071142"/>
<path d="M15.2816 47.7529C15.2816 49.2297 15.2816 50.5328 15.2816 51.9401C13.742 51.9401 12.2899 51.9401 10.7329 51.9401C10.7329 50.5241 10.7329 49.1863 10.7329 47.7529C12.2462 47.7529 13.707 47.7529 15.2816 47.7529Z" fill="#071142"/>
<path d="M10.7241 37.9712C10.7241 36.5552 10.7241 35.2173 10.7241 33.7666C12.2549 33.7666 13.707 33.7666 15.2728 33.7666C15.2728 35.2 15.2728 36.5378 15.2728 37.9712C13.742 37.9712 12.2812 37.9712 10.7241 37.9712Z" fill="#071142"/>
<path d="M15.3167 61.7051C15.3167 63.1558 15.3167 64.3981 15.3167 65.788C13.8122 65.788 12.3513 65.788 10.7681 65.788C10.7681 64.4763 10.7681 63.1471 10.7681 61.7051C12.2551 61.7051 13.6984 61.7051 15.3167 61.7051Z" fill="#071142"/>
<path d="M76.2163 76.8378C74.4931 76.8378 72.7698 76.8813 71.0466 76.8118C70.3905 76.7857 69.5683 76.6902 69.1309 76.2992C68.5098 75.7346 67.8625 74.8746 67.8188 74.1101C67.7925 73.7105 68.9735 72.9981 69.7082 72.8331C73.4521 71.9731 77.2222 71.2347 80.9924 70.4789C83.0043 70.0706 84.4039 71.0696 84.6488 73.0416C84.92 75.2307 83.7916 76.751 81.7359 76.8205C79.899 76.8813 78.062 76.8292 76.225 76.8292C76.2163 76.8378 76.2163 76.8378 76.2163 76.8378Z" fill="#071142"/>
</g>
<defs>
<clipPath id="clip0_310_170">
<rect width="97" height="97" fill="white"/>
</clipPath>
</defs>
</svg>
