<svg width="47" height="47" viewBox="0 0 47 47" fill="none" xmlns="http://www.w3.org/2000/svg">
<g clip-path="url(#clip0_282_305)">
<path d="M23.4734 46.9998C16.0858 46.9998 8.69823 46.9998 1.31065 46.9998C0.28073 46.9998 0.00976434 46.7235 0.00976434 45.6667C0.00976434 37.1177 0.0135278 28.5688 0.000983048 20.0199C-0.000271423 19.4405 0.180372 19.028 0.629473 18.6727C1.28305 18.1558 1.88771 17.5764 2.53376 17.048C2.79093 16.8379 2.88501 16.6164 2.88376 16.2815C2.87247 12.468 2.87623 8.65443 2.87623 4.8409C2.87623 3.78279 3.13841 3.51667 4.17712 3.51667C8.66938 3.51667 13.1616 3.51158 17.6539 3.52431C18.0252 3.52558 18.2999 3.42117 18.5734 3.17288C19.3888 2.43055 20.2231 1.70986 21.056 0.9879C22.5739 -0.32869 24.4393 -0.331237 25.961 0.984081C26.8078 1.71495 27.6483 2.45219 28.4775 3.20217C28.7259 3.42627 28.9742 3.52558 29.3142 3.52431C33.8378 3.51285 38.3614 3.51667 42.8851 3.51667C43.8598 3.51667 44.1408 3.80316 44.1408 4.79379C44.1408 8.62387 44.1446 12.4527 44.1345 16.2828C44.1333 16.5973 44.2236 16.8061 44.4644 17.0073C45.1419 17.5713 45.7879 18.1749 46.4628 18.7415C46.8291 19.0496 46.9997 19.4138 46.9997 19.8964C46.9947 28.5561 46.9972 37.2171 46.9935 45.8768C46.9935 46.6942 46.661 46.9998 45.8243 46.9998C38.374 46.9998 30.9237 46.9998 23.4734 46.9998ZM42.2892 5.41643C29.7432 5.41643 17.2525 5.41643 4.71152 5.41643C4.71152 5.63671 4.71152 5.82389 4.71152 6.01106C4.71152 11.1259 4.70776 16.2407 4.72156 21.3569C4.72156 21.5402 4.84073 21.777 4.97998 21.8993C8.70826 25.1462 12.4441 28.3855 16.1899 31.6107C16.3718 31.7673 16.6591 31.8769 16.8974 31.8781C21.2944 31.8934 25.6913 31.8934 30.0882 31.8781C30.3253 31.8769 30.6113 31.7661 30.792 31.6095C34.5115 28.4007 38.2172 25.1742 41.9354 21.9642C42.2026 21.7325 42.2967 21.502 42.2955 21.1544C42.2854 16.0867 42.2892 11.0189 42.2892 5.95249C42.2892 5.78187 42.2892 5.61252 42.2892 5.41643ZM3.44827 45.0835C16.8448 45.0835 30.1208 45.0835 43.3969 45.0835C43.4195 45.0479 43.4421 45.0122 43.4646 44.9778C43.3856 44.9307 43.2965 44.8951 43.2275 44.8352C39.0953 41.2331 34.9668 37.6271 30.8258 34.0351C30.6352 33.8708 30.3291 33.7664 30.0757 33.7664C25.7402 33.7499 21.4035 33.7601 17.0681 33.7461C16.6328 33.7448 16.3078 33.8607 15.9767 34.151C12.9346 36.8211 9.87743 39.4746 6.8253 42.1345C5.72513 43.0933 4.62622 44.0547 3.44827 45.0835ZM32.2898 32.8102C36.5638 36.5435 40.8001 40.2437 45.0954 43.9961C45.0954 36.5282 45.0954 29.1596 45.0954 21.7083C40.7926 25.4378 36.5525 29.1138 32.2898 32.8102ZM1.89398 43.9528C6.20685 40.2004 10.4394 36.5168 14.7071 32.8038C10.4231 29.0972 6.18803 25.4327 1.89398 21.7172C1.89398 29.1749 1.89398 36.5078 1.89398 43.9528ZM21.0573 3.48229C22.742 3.48229 24.3051 3.48229 25.956 3.48229C25.5608 3.13468 25.2347 2.84437 24.9047 2.55788C24.7743 2.44455 24.6463 2.32614 24.5046 2.22937C23.8748 1.7939 23.1083 1.78626 22.4911 2.25611C22.0195 2.6139 21.5867 3.02645 21.0573 3.48229ZM2.83734 20.0492C2.83734 19.7474 2.83734 19.5322 2.83734 19.2381C2.6429 19.4062 2.50992 19.522 2.35562 19.6545C2.52121 19.7894 2.64917 19.8938 2.83734 20.0492Z" fill="#071142"/>
<path d="M25.4087 21.8483C24.577 22.1132 23.8544 22.4799 23.103 22.5563C20.6731 22.8033 18.6973 20.6183 19.0348 18.1532C19.3722 15.6843 20.7434 14.0214 22.7969 13.5897C23.7729 13.3847 24.6561 13.6139 25.4727 14.2047C25.5154 14.1347 25.5455 14.0825 25.5768 14.0328C25.8666 13.577 26.2467 13.4127 26.6883 13.5515C27.106 13.6827 27.3732 14.0774 27.318 14.5994C27.1976 15.7352 27.0446 16.8685 26.9053 18.003C26.8376 18.5543 26.7397 19.1044 26.7109 19.6583C26.687 20.1128 26.6707 20.6578 27.1336 20.8857C27.6291 21.1302 28.0356 20.766 28.3593 20.412C29.1082 19.5933 29.4594 18.576 29.4444 17.4936C29.4318 16.6023 29.3264 15.6728 29.0517 14.8312C28.3505 12.6793 26.4499 11.5206 23.9598 11.5843C20.8374 11.6632 18.0023 14.3257 17.6348 17.4949C17.5181 18.5021 17.5369 19.4953 17.7878 20.4732C18.4188 22.9306 20.4736 24.5834 22.9738 24.6814C24.3776 24.7362 25.7098 24.4688 26.9756 23.8512C27.3883 23.65 27.7747 23.701 28.0908 24.0422C28.3605 24.3338 28.4383 24.6891 28.2526 25.0532C28.1698 25.2149 28.0406 25.3919 27.8863 25.4683C25.5103 26.6563 22.9838 27.0854 20.5351 26.0222C15.4834 23.8283 14.5576 18.6702 16.6927 14.4823C17.9158 12.0821 19.7787 10.367 22.4582 9.8755C25.3661 9.34199 27.998 9.94171 29.8935 12.4603C31.6435 14.7853 31.8028 18.4805 30.335 20.8768C29.8709 21.6344 29.2788 22.2558 28.4521 22.6059C27.2867 23.1 26.3094 22.83 25.4087 21.8483ZM22.7417 20.696C23.8858 20.6985 24.779 19.9282 24.9458 18.7835C25.0349 18.1723 25.1089 17.5573 25.1754 16.9436C25.1892 16.8124 25.1829 16.652 25.1227 16.5425C24.4052 15.2616 23.1833 15.0184 22.058 15.9453C21.1348 16.7055 20.7973 17.7509 20.8676 18.9096C20.9265 19.9015 21.8184 20.6947 22.7417 20.696Z" fill="#071142"/>
</g>
<defs>
<clipPath id="clip0_282_305">
<rect width="47" height="47" fill="white"/>
</clipPath>
</defs>
</svg>
