<svg width="110" height="107" viewBox="0 0 110 107" fill="none" xmlns="http://www.w3.org/2000/svg">
<g clip-path="url(#clip0_141_32)">
<path d="M0.000302868 99.4816C0.603856 97.5248 1.6002 95.8196 3.60246 94.9437C4.46468 94.5709 5.4227 94.3846 6.43821 94.0864C6.43821 93.0055 6.41904 91.8221 6.43821 90.648C6.55317 85.4485 10.414 81.5722 15.7502 81.5349C26.8824 81.4697 38.0146 81.4603 49.1372 81.5349C54.4351 81.5722 58.2672 85.4205 58.4109 90.5735C58.4492 91.7569 58.4204 92.931 58.4204 93.9C59.8287 94.515 61.17 94.953 62.3675 95.6425C63.565 96.3414 64.4081 97.5155 64.5709 98.848C64.8104 100.702 64.8488 102.594 64.7721 104.457C64.7146 105.753 63.5842 106.424 62.5112 107.001C42.4598 107.001 22.4084 107.001 2.35704 107.001C1.57146 106.237 0.78588 105.473 -0.00927734 104.7C0.000302868 102.967 0.000302868 101.224 0.000302868 99.4816Z" fill="#F9B233"/>
<path d="M0 104.709C0.785577 105.473 1.57115 106.237 2.36631 107.011C1.58074 107.011 0.795158 107.011 0 107.011C0 106.237 0 105.473 0 104.709Z" fill="#F9B233"/>
<path d="M60.4033 11.834C60.5949 12.0297 60.9302 12.2999 61.1889 12.6353C66.9945 20.1085 72.781 27.5909 78.577 35.0641C79.9086 36.7879 81.2211 38.5304 82.5911 40.2263C82.9743 40.7108 83.0318 41.0743 82.7348 41.6147C77.3124 51.2496 69.1213 57.2785 58.0753 59.5894C57.74 59.6639 57.1556 59.4589 56.9544 59.1887C49.6926 49.8706 42.45 40.5245 35.2361 31.1691C35.0445 30.9175 34.9679 30.3677 35.1116 30.0975C40.4573 20.3787 48.6963 14.3406 59.7423 11.9272C59.886 11.8992 60.0297 11.8899 60.4033 11.834Z" fill="#F9B233"/>
<path d="M98.2069 31.3094C98.1878 33.9464 96.5974 36.22 94.1257 37.1425C91.6157 38.0743 88.8279 37.5339 87.0939 35.4932C84.9287 32.9494 82.936 30.2657 80.8859 27.6287C76.4407 21.9074 72.005 16.1861 67.579 10.4554C65.2797 7.47361 65.4809 3.98863 68.058 1.69638C70.7021 -0.66111 74.7641 -0.586564 77.0825 2.05978C79.1902 4.46386 81.0775 7.06361 83.0318 9.58883C87.5345 15.394 92.0277 21.2085 96.5399 27.0137C97.5363 28.2903 98.274 29.6507 98.2069 31.3094Z" fill="#F9B233"/>
<path d="M45.5061 71.5088C43.2739 71.4995 41.5399 70.5863 40.2369 68.909C33.8278 60.6625 27.4282 52.4159 21.0669 44.1414C18.988 41.4299 19.2659 37.9542 21.5939 35.7831C23.9793 33.5654 27.524 33.379 30.1011 35.3824C30.6567 35.811 31.1262 36.3515 31.5573 36.9013C37.8132 44.9521 44.0595 53.003 50.2866 61.0725C52.6625 64.1381 52.3751 67.7629 49.616 70.0458C48.428 71.0242 47.0485 71.5274 45.5061 71.5088Z" fill="#F9B233"/>
<path d="M79.0083 72.0946C82.4763 69.5507 85.8582 67.0721 89.307 64.5469C91.568 67.4634 93.781 70.3241 95.994 73.1848C100.123 78.5147 104.252 83.854 108.391 89.184C110.058 91.3272 110.527 93.6287 109.311 96.1167C107.404 99.993 101.838 100.897 98.9543 97.6355C96.4155 94.7655 94.1738 91.6533 91.8266 88.6249C87.5826 83.1645 83.3481 77.6854 79.0083 72.0946Z" fill="#F9B233"/>
<path d="M85.427 59.5431C81.9685 62.0776 78.6059 64.5469 75.1378 67.0815C73.7391 65.2737 72.3691 63.5126 71.1333 61.9192C74.563 59.4033 77.9161 56.9527 81.4224 54.3809C82.6104 55.9183 83.9804 57.6702 85.427 59.5431Z" fill="#F9B233"/>
</g>
<defs>
<clipPath id="clip0_141_32">
<rect width="110" height="107" fill="white"/>
</clipPath>
</defs>
</svg>
