<svg width="152" height="66" viewBox="0 0 152 66" fill="none" xmlns="http://www.w3.org/2000/svg">
<path d="M144.639 40.8889C142.924 39.6873 141.814 38.7869 141.303 38.1846C140.792 37.5823 140.521 36.9683 140.491 36.3365C140.462 35.377 140.718 34.5562 141.259 33.8801C141.799 33.2041 142.567 32.835 143.559 32.776C144.4 32.7169 145.206 33.0181 145.971 33.6764C146.735 34.3377 147.104 35.253 147.075 36.425H151.491C151.491 34.261 150.747 32.4217 149.26 30.9042C147.772 29.3867 145.873 28.628 143.559 28.628C141.365 28.6575 139.561 29.434 138.15 30.9485C136.739 32.466 136.048 34.3053 136.077 36.4693C136.077 37.6709 136.573 38.9552 137.565 40.3221C138.557 41.689 140.134 43.0648 142.298 44.4465C144.19 45.6481 145.489 46.7995 146.198 47.8948C146.904 48.993 147.27 50.0352 147.302 51.0272C147.332 52.2583 146.924 53.3329 146.083 54.2511C145.241 55.1693 144.249 55.6269 143.107 55.6269C141.876 55.6269 140.86 55.1604 140.066 54.2304C139.269 53.3005 138.87 52.0369 138.87 50.4456H134.725C134.725 53.0289 135.543 55.246 137.182 57.0942C138.82 58.9423 140.828 59.8664 143.198 59.8664C145.782 59.8664 147.81 58.9571 149.283 57.1414C150.756 55.3228 151.491 53.2267 151.491 50.853C151.462 48.9606 150.913 47.2335 149.847 45.6687C148.778 44.104 147.042 42.5127 144.639 40.8889ZM126.057 59.3232H130.294V38.9581H126.057V59.3232ZM92.4274 32.8645C93.4785 32.8645 94.3346 33.1745 94.9959 33.7886C95.6573 34.4057 96.0027 35.2234 96.0322 36.2449H100.405C100.284 34.0218 99.4864 32.1973 98.0162 30.7684C96.5459 29.3424 94.7273 28.628 92.5632 28.628C92.2592 28.628 91.961 28.6457 91.6716 28.6782V4.64041H97.1689V0.583925H81.7991V4.64041H87.2963V30.8038H87.3052C86.9155 31.1729 86.5405 31.5891 86.1833 32.0556C84.4267 34.3377 83.5469 38.409 83.5469 44.2693C83.5469 50.1297 84.4267 54.2009 86.1833 56.4831C87.4528 58.1334 88.9142 59.1815 90.5704 59.642L88.123 65.6352L88.12 65.6471H92.2326L94.2874 59.7365C95.7104 59.4501 96.9563 58.7977 98.0191 57.7673C99.4894 56.3414 100.287 54.5139 100.408 52.2908H96.0352C96.0056 53.3123 95.6602 54.133 94.9989 54.7471C94.3376 55.3641 93.4814 55.6712 92.4304 55.6712C91.2583 55.7302 90.2132 55.0689 89.298 53.6872C88.3798 52.3055 87.9252 49.1643 87.9252 44.2664C87.9252 39.5811 88.3769 36.5077 89.2773 35.0493C90.1748 33.5938 91.2259 32.8645 92.4274 32.8645ZM74.7313 48.0542L66.4825 29.124H62.8275V4.64041H68.3247V0.583925H52.955V4.64041H58.4522V29.1269H62.1514V59.3232H66.4766V40.1213L74.9054 59.3202H79.0977V29.124H74.7253V48.0542H74.7313ZM50.9149 46.8379L48.7066 38.1403L46.5868 46.8379H50.9149ZM50.9149 29.124L58.4404 59.3202H54.068L51.9512 51.0715H45.5063L43.478 59.3202H39.1499L46.5544 29.617C45.2051 30.7507 43.5135 31.3205 41.4734 31.3205C39.0998 31.3205 37.0951 30.3964 35.4566 28.5483C33.8181 26.7001 33.0003 24.4859 33.0003 21.8996H37.1483C37.1483 23.4939 37.5468 24.7545 38.341 25.6845C39.1381 26.6174 40.1508 27.081 41.3819 27.081C42.5244 27.081 43.5164 26.6233 44.3578 25.7052C45.1992 24.79 45.6037 23.7153 45.5742 22.4812C45.5447 21.4893 45.1756 20.4471 44.47 19.3488C43.7644 18.2535 42.4654 17.1051 40.573 15.9005C38.4089 14.5189 36.8324 13.1431 35.8404 11.7762C34.8484 10.4092 34.3524 9.12497 34.3524 7.92338C34.3229 5.75933 35.0137 3.92004 36.425 2.40255C37.8362 0.885061 39.64 0.111554 41.8336 0.0820312C44.1453 0.0820312 46.0466 0.840776 47.5345 2.35827C49.0225 3.87576 49.7665 5.71505 49.7665 7.8791H45.3498C45.3793 6.70703 45.0132 5.79181 44.2456 5.13049C43.481 4.46917 42.675 4.17099 41.8336 4.23003C40.8416 4.28908 40.077 4.65812 39.5337 5.3342C38.9905 6.01028 38.7366 6.82807 38.7661 7.79053C38.7957 8.42232 39.0643 9.03936 39.578 9.63868C40.0888 10.2409 41.2018 11.1414 42.9141 12.343C45.3173 13.9668 47.0533 15.5581 48.1191 17.1198C49.1849 18.6816 49.734 20.4087 49.7635 22.3041C49.7635 24.6778 49.0284 26.7739 47.5552 28.5925C47.4046 28.7785 47.2452 28.9557 47.0799 29.121H50.9149V29.124ZM32.1057 37.0568C32.1057 35.9143 31.7455 35.0138 31.0252 34.3525C30.3048 33.6912 29.3571 33.3605 28.185 33.3605H23.7241V40.7974H28.185C29.2656 40.7974 30.1897 40.4372 30.9573 39.7169C31.7249 38.9965 32.1057 38.1108 32.1057 37.0568ZM31.9699 44.4937L36.3423 59.3202H31.8813L27.8691 45.1226H23.7241V59.3202H19.396V29.124H24.0666L16.3669 11.5813V33.3605H5.32526V40.9775H11.3657V45.1226H5.32526V59.3202H0.997161V29.124H12.0418V0.583925H16.3669L24.6127 19.5142V0.583925H28.9851V29.1476C31.0901 29.2598 32.8202 29.9831 34.1546 31.3323C35.6131 32.8055 36.3393 34.757 36.3393 37.1926C36.3393 38.7839 35.9408 40.2808 35.1436 41.6772C34.3524 43.0737 33.2925 44.0125 31.9699 44.4937ZM135.93 0.583925H120.56V4.64041H126.057V30.7832H130.43V4.64041H135.93V0.583925ZM113.867 46.8379L111.659 38.1403L109.542 46.8379H113.867ZM113.97 29.5432L121.393 59.3232H117.02L114.9 51.0744H108.456L106.427 59.3232H102.102L109.084 31.3205C109.049 31.3205 109.014 31.3234 108.978 31.3234C107.505 31.3234 106.085 30.9337 104.718 30.1514C103.351 29.369 102.309 28.3475 101.586 27.0869C100.803 25.7052 100.413 23.9308 100.413 21.7697V0.583925H104.742V22.3071C104.742 23.7478 105.131 24.9051 105.914 25.776C106.693 26.647 107.715 27.0839 108.978 27.0839C110.15 27.0839 111.113 26.6411 111.863 25.7554C112.612 24.8697 112.987 23.7212 112.987 22.3071V0.583925H117.36V21.7668C117.36 23.9604 116.97 25.7317 116.191 27.0839C115.633 28.0346 114.892 28.8523 113.97 29.5432ZM77.1404 0.583925H72.9038V20.9519H77.1404V0.583925ZM5.22193 20.9519H0.985352V0.583925H5.22193V20.9519Z" fill="black"/>
</svg>
