<svg width="97" height="97" viewBox="0 0 97 97" fill="none" xmlns="http://www.w3.org/2000/svg">
<g clip-path="url(#clip0_310_128)">
<path d="M97 88.8494C96.6507 89.3151 96.3631 89.8631 95.9316 90.2398C95.0756 90.9864 94.0552 91.1302 93.0142 90.6439C91.9528 90.1439 91.3775 89.2672 91.3296 88.1028C91.2885 87.0686 91.3227 86.0275 91.3227 84.8425C90.8707 84.8425 90.4804 84.8425 90.0831 84.8425C76.6672 84.8425 63.2513 84.8425 49.8423 84.8494C49.2259 84.8494 48.8219 84.8014 48.589 84.0754C46.6098 78.0206 42.9528 73.2056 37.707 69.6028C37.5495 69.5001 37.4057 69.3768 37.1934 69.2056C41.364 63.9795 42.6652 58.1028 41.1449 51.5275C41.59 51.5275 41.9667 51.5275 42.3433 51.5275C59.293 51.5275 76.2426 51.548 93.1923 51.5001C94.9523 51.4932 96.2535 51.9658 97.0137 53.6097C97 65.3562 97 77.1028 97 88.8494Z" fill="#071142"/>
<path d="M39.2271 0C40.7611 0.623288 42.439 1.02055 43.7881 1.91096C46.8425 3.92466 48.2806 6.94521 48.308 10.6027C48.3354 15.0548 48.3012 19.5069 48.3354 23.9521C48.3423 24.4795 48.5203 25.0753 48.8011 25.5137C50.3762 27.9521 51.9924 30.3562 53.6223 32.7603C54.3414 33.8219 54.6907 34.911 54.0401 36.1233C53.3895 37.3356 52.2869 37.6575 51.0131 37.6507C37.604 37.6507 24.1881 37.6712 10.7791 37.637C4.47858 37.6301 0.0340047 33.089 0.020308 26.7808C0.0134596 21.5137 0.0887914 16.2397 -0.00023709 10.9726C-0.102962 4.78082 4.4238 0.684932 8.87522 0.136986C8.9574 0.123288 9.03273 0.0479452 9.11491 0C19.1477 0 29.1874 0 39.2271 0ZM24.1813 16.3082V16.3151C27.1124 16.3151 30.0435 16.3219 32.9746 16.3151C34.8442 16.3082 36.0974 15.1918 36.1316 13.5342C36.1659 11.9178 34.8579 10.6507 33.0362 10.6438C27.1124 10.6233 21.1817 10.6164 15.2579 10.6575C14.6347 10.6644 13.943 10.8904 13.402 11.2123C12.3679 11.8288 11.9844 13.1301 12.3199 14.2877C12.6624 15.4521 13.7102 16.2877 15.0045 16.3014C18.0657 16.3288 21.1201 16.3082 24.1813 16.3082ZM19.6134 26.9315C19.6134 26.9452 19.6134 26.9658 19.6134 26.9795C20.9694 26.9795 22.3254 26.9932 23.6745 26.9726C24.1402 26.9658 24.6333 26.9315 25.0716 26.7945C26.3728 26.3767 27.1055 25.1507 26.9549 23.7671C26.811 22.5069 25.8523 21.411 24.5442 21.3836C21.2433 21.3082 17.9356 21.3562 14.6278 21.3699C14.3881 21.3699 14.1348 21.4658 13.9088 21.5616C12.7651 22.0548 12.0597 23.274 12.2241 24.4521C12.4021 25.7603 13.3883 26.8288 14.71 26.9041C16.3331 27 17.9767 26.9315 19.6134 26.9315Z" fill="#071142"/>
<path d="M20.3804 70.4588C11.1557 69.0273 7.48499 60.63 8.33419 54.6506C9.23132 48.3218 14.6826 43.0684 21.0995 42.6506C27.8588 42.2122 34.0018 46.5478 35.618 52.9314C36.6521 57.0341 36.0563 60.8971 33.6662 64.404C31.3104 67.8629 27.9615 69.8013 23.832 70.493C27.537 70.8766 30.968 71.9451 34.0429 73.9793C40.0968 77.9793 43.5278 83.5958 44.199 90.856C44.2743 91.6711 44.3291 92.493 44.3154 93.315C44.2675 95.5547 42.8362 96.9862 40.6104 96.9862C28.3314 96.993 16.0591 96.993 3.78003 96.9862C1.45844 96.9862 0.0408361 95.5136 0.0271394 93.1711C-0.0207991 83.3081 6.00575 74.7739 15.34 71.6232C16.9905 71.0684 18.7574 70.8287 20.3804 70.4588Z" fill="#071142"/>
<path d="M56.3755 45.6028C58.1903 36.4521 63.6416 31.1987 72.8663 29.6918C64.9565 28.1918 62.0117 21.6165 62.6349 16.6918C63.4293 10.411 68.5587 5.91101 74.64 6.08909C80.7762 6.26717 85.8028 11.0685 86.1795 17.1096C86.563 23.3083 82.3239 28.548 75.7974 29.6713C85.1317 31.1987 90.5761 36.4589 92.3978 45.6096C80.3447 45.6028 68.4628 45.6028 56.3755 45.6028Z" fill="#071142"/>
</g>
<defs>
<clipPath id="clip0_310_128">
<rect width="97" height="97" fill="white"/>
</clipPath>
</defs>
</svg>
