<svg width="71" height="105" viewBox="0 0 71 105" fill="none" xmlns="http://www.w3.org/2000/svg">
<g clip-path="url(#clip0_141_41)">
<path d="M71 41.3645V0H55.6007V3.8567H15.3993V0H0V41.3645H15.3993V38.0057H30.0468V41.8624C15.1457 44.5059 3.84078 57.4974 3.83172 73.1777C3.82266 90.7773 18.0897 105.027 35.6902 105C53.2817 104.982 67.4582 90.8316 67.5125 73.2411C67.5578 57.5517 56.2529 44.5241 41.2883 41.8714V38.0057H55.5916V41.3645H71ZM42.2485 66.424C45.6998 66.8585 49.142 67.3926 52.5842 67.8996C52.8922 67.9449 53.1911 68.0354 53.644 68.126C52.711 69.0494 51.8686 69.8914 51.008 70.7243C49.1782 72.5078 47.3666 74.3275 45.4915 76.0566C44.8574 76.6451 44.7305 77.2155 44.8755 78.0122C45.5096 81.5067 46.1074 85.0013 46.7143 88.4959C46.7415 88.6679 46.7506 88.8399 46.7868 89.1749C46.3973 88.9938 46.0893 88.8761 45.7994 88.7222C42.6833 87.0926 39.5672 85.4721 36.4693 83.8063C35.9076 83.4984 35.4909 83.4894 34.9203 83.7972C31.5415 85.6079 28.1446 87.3732 24.5574 89.2563C24.8292 87.6086 25.0737 86.1329 25.3183 84.6663C25.7169 82.3215 26.1517 79.9858 26.4869 77.6319C26.5503 77.2064 26.3329 76.5908 26.0249 76.283C23.6153 73.8658 21.1605 71.5028 18.7147 69.1218C18.4158 68.8321 18.0988 68.5515 17.6096 68.0898C21.6587 67.4922 25.418 66.9219 29.1772 66.4149C29.8747 66.3244 30.228 66.0528 30.5179 65.4462C32.1665 62.0331 33.8604 58.6381 35.6268 55.0802C35.8533 55.4695 36.0163 55.7139 36.1522 55.9765C37.7012 59.0908 39.2593 62.1961 40.763 65.3285C41.0891 65.9985 41.4604 66.3244 42.2485 66.424ZM15.3993 22.6151V19.2563H55.5916V22.6151H15.3993Z" fill="#F9B233"/>
</g>
<defs>
<clipPath id="clip0_141_41">
<rect width="71" height="105" fill="white"/>
</clipPath>
</defs>
</svg>
