<svg width="93" height="93" viewBox="0 0 93 93" fill="none" xmlns="http://www.w3.org/2000/svg">
<g clip-path="url(#clip0_141_47)">
<path d="M49.2414 0C49.2414 3.60651 49.2523 7.20757 49.2305 10.8141C49.225 11.3706 49.3723 11.6489 49.9124 11.8889C51.7291 12.6855 53.0657 14.0278 53.8731 15.8337C54.1295 16.4121 54.4296 16.5539 55.0188 16.5539C65.4661 16.5376 75.9134 16.543 86.3607 16.543C86.7207 16.543 87.0862 16.543 87.5172 16.543C87.5172 18.3436 87.5172 20.1114 87.5172 21.9719C85.3023 21.9719 83.0819 21.9719 80.7415 21.9719C80.9052 22.3975 81.0088 22.703 81.1343 23.0031C84.975 32.344 88.7938 41.6904 92.6727 51.0204C93.1691 52.2099 93.0164 53.3393 92.8036 54.4851C91.6143 60.8906 86.0333 65.572 79.5085 65.6047C76.939 65.6156 74.3422 65.7029 71.7999 65.3974C65.597 64.6608 60.4907 58.8554 60.3488 52.6082C60.3379 52.1717 60.4525 51.7079 60.6216 51.3041C64.4786 41.8377 68.3466 32.3822 72.2145 22.9213C72.3236 22.6485 72.4164 22.3702 72.5419 22.0374C66.3717 22.0374 60.2943 22.0374 54.195 22.0374C53.3057 24.258 51.8055 25.873 49.6015 26.8224C49.4378 26.8933 49.3341 27.1607 49.2578 27.3626C49.2087 27.4935 49.2468 27.6627 49.2468 27.8154C49.2468 40.2063 49.2468 52.5918 49.2468 64.9827C49.2468 65.2828 49.2468 65.5829 49.2468 65.8775C54.8497 67.3507 58.3903 70.799 59.8851 76.4624C50.949 76.4624 42.1329 76.4624 33.3113 76.4624C33.3004 72.3867 37.6594 67.9563 43.7913 65.8557C43.7913 65.5556 43.7913 65.2228 43.7913 64.8954C43.7913 52.5645 43.7859 40.2391 43.8077 27.9082C43.8077 27.2153 43.6386 26.8606 42.9676 26.5605C41.1891 25.7639 39.9507 24.3835 39.0887 22.6376C38.9578 22.3757 38.625 22.0265 38.3795 22.0265C32.4439 21.9937 26.5138 21.9992 20.4254 21.9992C20.5727 22.3975 20.6818 22.7194 20.8128 23.0304C24.6371 32.344 28.445 41.6686 32.3184 50.9604C32.8258 52.1771 32.6894 53.3338 32.4657 54.5124C31.2491 60.9288 25.6845 65.572 19.1488 65.6102C16.6993 65.6211 14.2225 65.7302 11.8057 65.441C5.78284 64.7099 1.14566 60.0885 0.169121 54.1141C0.141843 53.9449 0.0600106 53.7867 0 53.6175C0 53.0119 0 52.4063 0 51.8007C0.0763771 51.6752 0.169121 51.5551 0.223676 51.4187C4.15164 41.8214 8.0796 32.224 12.0021 22.6266C12.0785 22.4466 12.1058 22.2447 12.1821 21.9555C9.89629 21.9555 7.70317 21.9555 5.52643 21.9555C5.52643 20.1059 5.52643 18.3381 5.52643 16.543C5.96287 16.543 6.32293 16.543 6.68299 16.543C17.1303 16.543 27.5776 16.5376 38.0249 16.5539C38.6141 16.5539 38.9087 16.4066 39.1651 15.8337C39.9725 14.0278 41.32 12.691 43.1312 11.8944C43.6822 11.6543 43.8132 11.3652 43.8077 10.8195C43.7804 7.20757 43.7913 3.60651 43.7913 0C45.608 0 47.4247 0 49.2414 0ZM25.8755 49.2199C22.7113 41.6195 19.5744 34.0955 16.3502 26.3532C13.115 34.1282 9.98358 41.6413 6.83029 49.2199C13.2351 49.2199 19.4871 49.2199 25.8755 49.2199ZM86.2024 49.209C83.0383 41.6086 79.9013 34.09 76.6771 26.3532C73.4366 34.1391 70.3106 41.6468 67.1627 49.209C73.573 49.209 79.825 49.209 86.2024 49.209Z" fill="#F9B233"/>
<path d="M22.0298 93.0008C21.9043 90.2618 21.8279 87.6101 23.5901 85.3076C25.1994 83.207 27.3216 82.0067 29.9566 81.9958C41.004 81.9521 52.0514 81.9466 63.0934 81.9958C67.4414 82.0176 70.9384 85.6023 71.042 89.9563C71.0639 90.9493 71.0475 91.9478 71.0475 93.0008C54.6973 93.0008 38.4018 93.0008 22.0298 93.0008Z" fill="#F9B233"/>
</g>
<defs>
<clipPath id="clip0_141_47">
<rect width="93" height="93" fill="white"/>
</clipPath>
</defs>
</svg>
