<svg width="234" height="95" viewBox="0 0 234 95" fill="none" xmlns="http://www.w3.org/2000/svg">
<g clip-path="url(#clip0_332_765)">
<path d="M70.5296 34.4607C70.9242 34.8211 71.115 35.1365 71.1829 35.423C72.1824 31.9663 73.5635 28.6706 75.2809 25.5841C74.9834 25.3717 74.4044 25.0659 73.1721 24.567C70.3129 23.4406 58.3164 25.6871 38.2243 23.1606C28.1847 21.9053 18.5041 19.4529 11.2881 17.29C12.1032 20.9108 14.4028 23.3762 17.2556 25.0144C21.677 26.4241 28.0812 27.9497 36.6653 28.7993C55.4605 30.6339 66.147 27.4283 71.0988 29.2725C72.302 30.2863 72.0239 30.8914 71.5808 31.4095C71.2217 31.1714 71.9689 30.4279 69.1905 29.7778C66.3928 29.1147 55.027 31.4964 36.1251 29.6426C28.2914 28.8669 22.3918 27.4057 18.1612 25.9349C20.3541 29.6941 23.54 32.6969 27.2855 34.9145C30.7172 35.6 35.0351 36.1793 40.3169 36.3467C56.7413 36.8616 66.2505 33.0027 70.5296 34.4607Z" fill="white"/>
<path d="M75.0478 12.659C78.7188 14.1717 79.7991 16.6499 79.9382 18.7001C80.8018 17.6348 81.7107 16.6081 82.6616 15.6232C81.578 14.3937 80.3393 13.1289 78.9194 11.835C73.1104 6.55029 63.2357 8.2754 50.0361 8.81611C36.8526 9.31175 11.2199 3.10973 5.33971 1.09175C-0.537213 -0.951992 -0.459588 0.335401 0.465454 1.26876C0.517205 1.3106 0.562486 1.3621 0.611003 1.41359C9.20483 3.91114 21.1851 7.06525 33.5697 9.2152C57.1388 13.3027 68.925 10.1486 75.0478 12.659Z" fill="white"/>
<path d="M75.2586 23.9333C75.5303 24.1554 75.7308 24.3582 75.8763 24.5449C76.6429 23.2446 77.4677 21.9862 78.3507 20.7696C78.5577 18.6293 77.8946 15.4655 73.5637 13.705C67.5445 11.201 55.9944 14.3197 32.8554 10.3192C21.2859 8.29151 10.0302 5.06659 1.67246 2.34375C0.773295 4.40036 2.89183 6.62112 4.50257 7.47723C12.967 9.96512 24.4136 13.0291 36.2289 15.1501C58.5852 19.1893 70.3099 16.5855 76.6817 18.5359C77.1636 19.1475 77.5841 19.9006 77.7329 20.7213C77.2736 20.4123 76.7464 20.1581 76.1513 19.907C70.1417 17.3837 58.611 20.422 35.54 16.2444C24.2842 14.2135 13.3422 11.0111 5.07183 8.29795C4.87776 10.9757 6.92838 14.4549 10.4474 16.4343C17.9642 18.3686 28.379 20.747 38.8779 22.0634C58.8698 24.5577 69.9606 21.8832 75.2586 23.9333Z" fill="white"/>
<path d="M47.2965 44.7216C58.6913 43.6917 66.1563 40.0709 70.167 39.6654C70.3708 38.5904 70.6134 37.5283 70.8883 36.4823C70.8753 36.4984 70.8624 36.5177 70.8495 36.537C70.539 36.2989 71.2214 35.5457 68.8086 35.0855C66.3989 34.6381 56.3043 37.7247 39.8088 37.2097C35.4197 37.0713 31.7454 36.595 28.7051 35.9738C30.801 39.2084 31.2312 39.6751 34.168 42.2466C35.8176 43.6853 38.0234 44.5285 39.4142 44.9469C41.6654 45.066 44.2917 45.0338 47.2965 44.7216Z" fill="white"/>
<path d="M69.7564 55.0234C68.5629 55.8538 67.2853 56.6842 65.9301 57.4695C64.9598 58.0392 64.0574 58.4897 63.2326 58.8309C61.1755 61.808 65.1992 63.9258 67.4406 62.9216C68.2363 62.574 69.3845 62.014 71.0082 61.174C70.4615 59.1721 70.0411 57.1219 69.7564 55.0234Z" fill="white"/>
<path d="M69.3746 46.3981C69.4652 44.4123 69.6787 42.4587 70.0086 40.5469C67.4405 40.8752 59.3124 44.4992 46.8243 45.6289C44.6637 45.8413 42.7393 45.8767 41.0186 45.8381C41.4164 46.6427 42.4546 48.2584 44.5214 49.8676C48.0178 52.5454 53.3287 52.4456 57.1162 51.4221C62.1004 50.0414 66.1855 48.0427 69.3746 46.3981Z" fill="white"/>
<path d="M66.3441 56.543C67.515 55.8639 68.6244 55.1366 69.6755 54.3995C69.4459 52.5006 69.323 50.5695 69.323 48.6095C69.323 48.1846 69.3295 47.7598 69.3392 47.335C66.1565 48.9345 61.8612 50.8849 56.6635 52.3268C56.0587 52.4845 55.4732 52.6455 54.9072 52.771C52.5526 54.3384 53.5035 56.0603 54.9493 57.2704C57.6241 59.5298 59.8526 58.6318 62.7992 58.3132C63.831 57.8916 65.0212 57.309 66.3441 56.543Z" fill="white"/>
<path d="M179.092 52.7742C178.522 52.6454 177.937 52.4877 177.335 52.33C172.338 50.9461 168.189 49.0922 165.048 47.5312C165.054 47.8917 165.061 48.2522 165.061 48.6127C165.061 50.6564 164.931 52.6744 164.679 54.6505C165.627 55.3039 166.613 55.9444 167.655 56.5462C168.978 57.3122 170.168 57.8948 171.197 58.3196C174.143 58.6382 176.372 59.5362 179.046 57.2768C180.492 56.0635 181.446 54.3383 179.092 52.7742Z" fill="white"/>
<path d="M187.172 45.6287C175.263 44.5505 167.322 41.2065 164.385 40.6143C164.718 42.5711 164.929 44.5698 165.016 46.6006C168.147 48.2034 172.103 50.0991 176.883 51.4219C180.671 52.4454 185.981 52.5452 189.478 49.8674C191.548 48.2582 192.583 46.6425 192.984 45.8379C191.26 45.8733 189.332 45.8411 187.172 45.6287Z" fill="white"/>
<path d="M168.066 57.47C166.843 56.7619 165.686 56.0185 164.592 55.2686C164.301 57.3413 163.877 59.3689 163.328 61.3483C164.773 62.0917 165.818 62.6003 166.556 62.9221C168.797 63.9295 172.821 61.8085 170.764 58.8314C169.939 58.4935 169.036 58.0397 168.066 57.47Z" fill="white"/>
<path d="M228.659 1.08847C222.779 3.10646 197.143 9.30848 183.963 8.81283C170.767 8.27212 160.889 6.55024 155.08 11.8318C153.737 13.0548 152.557 14.2456 151.519 15.4107C152.418 16.3312 153.281 17.2839 154.103 18.2752C154.358 16.3151 155.529 14.0654 158.951 12.6557C165.074 10.1421 176.857 13.2994 200.429 9.21192C212.817 7.06198 224.794 3.90786 233.388 1.41032C233.437 1.35882 233.485 1.30733 233.537 1.26549C234.459 0.335343 234.536 -0.952051 228.659 1.08847Z" fill="white"/>
<path d="M165.187 35.0855C163.897 35.3333 163.496 35.6616 163.35 35.9545C163.69 37.1872 163.984 38.4392 164.223 39.7105C168.325 40.2994 175.673 43.7239 186.699 44.7216C189.707 45.0338 192.334 45.066 194.578 44.9502C195.969 44.5318 198.175 43.6885 199.825 42.2498C202.765 39.6783 203.192 39.2116 205.287 35.977C202.25 36.5982 198.576 37.0745 194.184 37.2129C177.691 37.7247 167.597 34.6381 165.187 35.0855Z" fill="white"/>
<path d="M201.144 10.3159C178.005 14.3165 166.455 11.1978 160.436 13.7018C156.474 15.3142 155.581 18.0982 155.617 20.1999C156.597 21.5098 157.509 22.8745 158.353 24.2842C158.463 24.1715 158.589 24.0556 158.741 23.9333C164.039 21.8832 175.13 24.5577 195.122 22.0602C205.624 20.747 216.036 18.3686 223.556 16.4311C227.075 14.4485 229.125 10.9725 228.931 8.29473C220.661 11.0079 209.719 14.2103 198.463 16.2412C175.389 20.422 163.858 17.3805 157.848 19.907C157.257 20.1581 156.729 20.4123 156.267 20.7213C156.416 19.9006 156.836 19.1475 157.318 18.5359C163.687 16.5855 175.415 19.1893 197.771 15.1501C209.586 13.0259 221.033 9.96512 229.497 7.47723C231.105 6.62111 233.226 4.40036 232.327 2.34375C223.97 5.06659 212.714 8.29151 201.144 10.3159Z" fill="white"/>
<path d="M160.824 24.567C159.902 24.9404 159.349 25.2043 159 25.4038C160.682 28.397 162.047 31.5865 163.053 34.9338C163.156 34.7825 163.286 34.628 163.47 34.4607C167.749 33.0027 177.258 36.8616 193.683 36.3467C198.968 36.1793 203.286 35.6032 206.714 34.9145C210.459 32.6969 213.645 29.6941 215.838 25.9349C211.608 27.4057 205.705 28.8669 197.874 29.6426C178.973 31.4964 167.61 29.1147 164.809 29.7778C162.031 30.4279 162.778 31.1714 162.419 31.4095C161.976 30.8914 161.697 30.2863 162.901 29.2725C167.853 27.4283 178.539 30.6307 197.334 28.7993C205.918 27.9529 212.323 26.4241 216.744 25.0144C219.597 23.3762 221.896 20.9076 222.711 17.29C215.495 19.4529 205.812 21.9053 195.772 23.1606C175.68 25.6871 163.683 23.4406 160.824 24.567Z" fill="white"/>
<path d="M120.859 5.9548C120.898 5.38191 120.52 5.01178 119.811 4.96673C119.524 4.94741 119.326 4.96351 119.223 4.98282L119.103 6.82379C119.223 6.85919 119.371 6.8785 119.575 6.89138C120.329 6.94609 120.817 6.59528 120.859 5.9548Z" fill="white"/>
<path d="M107.152 10.3736C108.08 10.1322 108.381 9.11196 108.07 7.93721C107.782 6.85258 107.016 6.0544 106.068 6.30222C105.14 6.54683 104.829 7.56709 105.14 8.74183C105.454 9.92302 106.233 10.6118 107.152 10.3736Z" fill="white"/>
<path d="M74.7266 51.1319C74.3611 51.2703 73.905 51.4119 73.5396 51.531L73.5428 51.5503C73.9212 51.6179 74.4031 51.6758 74.7719 51.7531L76.1271 52.0331L76.0301 50.6523L74.7266 51.1319Z" fill="white"/>
<path d="M127.739 10.5471C128.664 10.8013 129.44 10.074 129.767 8.90244C130.071 7.82103 129.809 6.74605 128.864 6.48536C127.939 6.22788 127.153 6.95526 126.827 8.12678C126.497 9.30797 126.82 10.2928 127.739 10.5471Z" fill="white"/>
<path d="M159.562 46.1084C159.927 45.9764 160.387 45.838 160.752 45.7222V45.7029C160.374 45.6321 159.895 45.5677 159.526 45.4872L158.174 45.1943L158.255 46.5751L159.562 46.1084Z" fill="white"/>
<path d="M100.812 8.94135C100.579 8.41352 100.104 8.30731 99.5024 8.55835C99.1854 8.69674 99.0172 8.79974 98.9331 8.85767L99.6285 10.4379L100.143 10.2127C100.793 9.93264 101.035 9.44343 100.812 8.94135Z" fill="white"/>
<path d="M79.1611 26.8779L79.1514 26.894C79.4295 27.1579 79.795 27.4733 80.0602 27.7437L81.0306 28.7253L81.7195 27.5248L80.3675 27.203C79.9891 27.1161 79.5298 26.9809 79.1611 26.8779Z" fill="white"/>
<path d="M76.6188 38.7319C75.5126 38.5099 74.455 38.8446 74.2609 39.8005C74.0701 40.7371 74.8561 41.4644 76.0528 41.7058C77.2592 41.9472 78.2231 41.5546 78.4139 40.6276C78.6047 39.6911 77.8188 38.9733 76.6188 38.7319Z" fill="white"/>
<path d="M117.191 2.21777C91.4454 2.21777 70.5737 22.9867 70.5737 48.6058C70.5737 74.2249 91.4454 94.997 117.191 94.997C142.94 94.997 163.812 74.2281 163.812 48.6058C163.809 22.9867 142.94 2.21777 117.191 2.21777ZM160.245 36.3755L154.219 38.1682L153.808 36.8068L159.834 35.0141L160.245 36.3755ZM158.372 30.9621C158.731 31.8182 158.857 32.4715 158.702 33.0187C158.572 33.4757 158.246 33.8329 157.712 34.055C156.971 34.364 156.244 34.0518 155.855 33.6334L155.83 33.6431C155.836 34.1129 155.542 34.4992 155.07 34.8661C154.491 35.3199 153.811 35.8155 153.633 36.0183L153.071 34.6826C153.194 34.5185 153.611 34.1838 154.251 33.7171C154.908 33.2601 155.002 32.9318 154.788 32.3975L154.623 32.0048L152.343 32.9575L151.8 31.6637L157.521 29.2756C157.764 29.665 158.081 30.2701 158.372 30.9621ZM154.704 24.1678L151.618 26.0506C150.697 26.6139 150.441 27.2479 150.823 27.8659C151.214 28.4999 151.874 28.5772 152.818 27.9978L155.904 26.115L156.645 27.3187L153.64 29.1533C151.987 30.1639 150.687 29.8098 149.83 28.4195C149.002 27.0741 149.261 25.8254 150.972 24.7826L153.963 22.9577L154.704 24.1678ZM151.997 20.296C152.472 20.856 152.721 21.3774 152.783 21.651L151.735 22.1563C151.641 21.8602 151.466 21.4836 151.143 21.1006C150.415 20.2445 149.328 20.016 148.261 20.9139C147.3 21.7218 147.178 22.8 147.996 23.7623C148.274 24.0874 148.652 24.3899 148.918 24.5315L148.209 25.407C147.941 25.2943 147.456 24.9371 146.961 24.3545C145.557 22.7034 145.868 20.9848 147.233 19.8325C148.869 18.4582 150.768 18.8509 151.997 20.296ZM148.526 16.5915L147.747 17.4541L145.923 15.8223L145.049 16.7879L146.77 18.3263L145.997 19.1824L144.276 17.644L143.28 18.7479L145.201 20.4666L144.422 21.3291L141.44 18.6642L145.641 14.0135L148.526 16.5915ZM138.205 14.5864C138.409 14.963 138.784 15.4522 139.282 15.7933C139.819 16.1602 140.259 16.1345 140.489 15.7966C140.712 15.4747 140.589 15.1239 140.12 14.477C139.463 13.5919 139.231 12.7326 139.748 11.9827C140.353 11.104 141.556 10.9334 142.779 11.767C143.364 12.1661 143.71 12.5813 143.924 12.9289L143.012 13.6917C142.873 13.4503 142.604 13.0544 142.096 12.7068C141.588 12.3592 141.184 12.4204 141 12.6907C140.773 13.019 140.964 13.3634 141.459 14.0747C142.142 15.037 142.245 15.803 141.744 16.5304C141.149 17.3961 139.971 17.6729 138.548 16.701C137.956 16.2954 137.478 15.7451 137.296 15.3846L138.205 14.5864ZM137.238 8.55819L136.763 9.61707L134.557 8.63865L133.971 9.94535L136.032 10.8594L135.563 11.9086L133.502 10.9946L132.474 13.2926L131.17 12.7133L133.729 7.00044L137.238 8.55819ZM125.371 7.75357C125.876 5.948 127.412 4.91808 129.201 5.41373C131.06 5.92869 131.688 7.59586 131.225 9.25982C130.672 11.236 129.133 12.1017 127.364 11.6093C125.565 11.1137 124.892 9.47224 125.371 7.75357ZM117.883 3.90426C118.327 3.8592 118.944 3.84311 119.808 3.89782C120.684 3.95575 121.296 4.16174 121.694 4.52221C122.072 4.86337 122.308 5.39764 122.269 6.00915C122.231 6.62066 121.991 7.12596 121.597 7.45425C121.082 7.87587 120.355 8.03357 119.517 7.97886C119.332 7.96599 119.164 7.94668 119.035 7.92093L118.889 10.1513L117.486 10.0612L117.883 3.90426ZM112.049 4.13277L112.369 7.71816C112.466 8.78992 112.922 9.29844 113.646 9.23729C114.39 9.17292 114.753 8.61934 114.652 7.51862L114.332 3.93323L115.746 3.8077L116.056 7.30298C116.227 9.22441 115.335 10.2254 113.698 10.3702C112.12 10.5086 111.114 9.72328 110.936 7.73426L110.625 4.25829L112.049 4.13277ZM105.819 5.20453C107.685 4.71854 109.073 5.84179 109.513 7.51218C110.037 9.49477 109.144 11.0139 107.368 11.4774C105.564 11.9473 104.153 10.8691 103.697 9.14717C103.219 7.33194 104.024 5.67443 105.819 5.20453ZM98.9363 7.66023C99.7902 7.28689 100.444 7.15493 100.997 7.29976C101.459 7.42206 101.821 7.74069 102.054 8.26852C102.378 8.99912 102.077 9.72972 101.66 10.1224L101.669 10.1481C102.142 10.1352 102.533 10.4185 102.911 10.8852C103.374 11.4516 103.885 12.1243 104.092 12.2948L102.759 12.8742C102.594 12.7551 102.252 12.3463 101.77 11.7155C101.301 11.0686 100.967 10.9817 100.434 11.2038L100.042 11.3744L101.035 13.6273L99.7449 14.1905L97.2544 8.53566C97.6425 8.28783 98.2441 7.96277 98.9363 7.66023ZM93.7386 10.3541C94.4243 9.92282 95.0356 9.72006 95.3752 9.68144L95.7342 10.795C95.3623 10.853 94.9353 10.9817 94.3531 11.3486C93.3537 11.9794 92.9559 13.0222 93.6868 14.1648C94.3822 15.2526 95.4755 15.4618 96.4587 14.8407C96.7337 14.6669 96.9342 14.4963 96.9989 14.3901L96.2938 13.2861L95.4755 13.8043L94.8803 12.871L96.8566 11.6222L98.6323 14.403C98.3412 14.7634 97.7525 15.3782 97.0506 15.8191C96.0835 16.4306 95.2264 16.6301 94.4372 16.4692C93.661 16.3244 92.9526 15.803 92.4642 15.0209C91.3548 13.2668 91.9985 11.4516 93.7386 10.3541ZM87.6611 14.8793L91.8691 19.5236L90.8114 20.473L86.6035 15.8287L87.6611 14.8793ZM82.1238 20.6211L84.1227 21.4965C84.8051 21.8151 85.5296 22.1659 86.183 22.5328L86.2024 22.5103C85.7593 21.9085 85.2644 21.2133 84.8601 20.6114L83.6957 18.7608L84.8892 17.3479L89.9155 21.1135L89.0196 22.1692L87.121 20.6983C86.5258 20.2348 85.8078 19.6716 85.1092 19.0858L85.0898 19.1084C85.5782 19.7714 86.0924 20.5438 86.5 21.2004L87.8811 23.3536L87.1663 24.1968L84.8731 23.1476C84.1777 22.8322 83.3561 22.4202 82.6316 22.0082L82.6187 22.0211C83.2429 22.594 83.9674 23.2345 84.5367 23.772L86.2897 25.3876L85.452 26.3918L80.9044 22.0597L82.1238 20.6211ZM78.7244 25.5067L85.148 26.9293L84.3879 28.2489L82.7481 27.8691L81.8554 29.4236L83.0327 30.608L82.3017 31.8793L77.8026 27.1127L78.7244 25.5067ZM74.9305 33.5175L78.3104 34.8017C79.3196 35.1847 79.9826 35.0013 80.2414 34.3222C80.5066 33.6302 80.167 33.0605 79.1287 32.6679L75.7488 31.3837L76.2534 30.0673L79.546 31.3193C81.3573 32.0081 81.8715 33.2472 81.2861 34.7727C80.7201 36.2468 79.5686 36.8004 77.6959 36.0891L74.4194 34.8435L74.9305 33.5175ZM72.5435 44.2769L76.5089 44.5312C78.2943 44.6438 78.8635 45.5354 78.7762 46.9064C78.7568 47.2315 78.6727 47.6531 78.5627 47.9267L77.4275 47.695C77.5051 47.5051 77.5665 47.2572 77.5859 46.9804C77.6248 46.3882 77.3789 45.9988 76.4021 45.9377L72.4562 45.6866L72.5435 44.2769ZM72.537 52.4808L72.4076 50.6302L78.5433 48.2614L78.6501 49.7805L77.0749 50.3727L77.201 52.159L78.8409 52.4937L78.9412 53.9581L72.537 52.4808ZM79.5039 40.9233C79.1352 42.7417 77.5374 43.5302 75.7844 43.1762C73.9375 42.8061 72.7958 41.3545 73.1645 39.5425C73.5462 37.6597 75.1731 36.9162 76.8744 37.2606C78.8926 37.6662 79.8694 39.1306 79.5039 40.9233ZM92.1117 82.9148L89.7991 81.8044L87.5706 83.0725L87.9134 80.5428L86.0148 78.8273L88.5409 78.3735L89.5953 76.0466L90.8114 78.2931L93.3634 78.5699L91.5909 80.4173L92.1117 82.9148ZM104.073 90.6681L101.76 89.561L99.5347 90.8291L99.8775 88.2993L97.9789 86.5807L100.502 86.1236L101.556 83.7967L102.772 86.0432L105.321 86.32L103.549 88.1674L104.073 90.6681ZM119.753 94.025L117.44 92.9179L115.212 94.186L115.558 91.6562L113.659 89.9408L116.182 89.4837L117.237 87.1568L118.453 89.4033L121.005 89.6801L119.232 91.5275L119.753 94.025ZM135.068 90.578L132.755 89.4709L130.53 90.7389L130.873 88.2092L128.974 86.4906L131.5 86.0368L132.555 83.7098L133.771 85.9563L136.32 86.2331L134.547 88.0805L135.068 90.578ZM147.119 82.9148L144.807 81.8077L142.578 83.0757L142.921 80.546L141.022 78.8306L143.549 78.3735L144.603 76.0466L145.819 78.2963L148.371 78.5731L146.599 80.4205L147.119 82.9148ZM117.191 86.0303C96.4199 86.0303 79.5848 69.2749 79.5848 48.609C79.5848 27.9431 96.4199 11.1877 117.191 11.1877C137.963 11.1877 154.801 27.9431 154.801 48.609C154.801 69.2749 137.963 86.0303 117.191 86.0303ZM154.804 40.5564L159.805 39.6101L159.488 37.9623L160.659 37.7402L161.561 42.4585L160.39 42.6806L160.07 41.0037L155.07 41.9532L154.804 40.5564ZM161.765 44.7822L161.875 46.6361L155.716 48.9405L155.626 47.4214L157.207 46.8453L157.101 45.0558L155.464 44.705L155.377 43.2406L161.765 44.7822ZM161.813 52.5001C161.752 53.2018 161.558 53.7071 161.36 54.0611L160.245 53.6491C160.387 53.411 160.6 52.9797 160.655 52.3714C160.707 51.7631 160.455 51.4413 160.131 51.4155C159.734 51.3801 159.527 51.7181 159.148 52.4969C158.644 53.5622 158.023 54.0321 157.14 53.9549C156.088 53.8648 155.267 52.9861 155.416 51.2739C155.477 50.5626 155.723 49.8739 155.949 49.5391L157.094 49.9254C156.865 50.289 156.622 50.8523 156.57 51.4541C156.515 52.1011 156.755 52.4647 157.162 52.5001C157.554 52.5323 157.803 52.2555 158.136 51.5314C158.589 50.5272 159.223 49.9028 160.131 49.9801C161.199 50.0734 161.939 51.0293 161.813 52.5001Z" fill="white"/>
<path d="M157.059 32.8094C157.592 32.5873 157.709 32.1174 157.463 31.5123C157.33 31.1969 157.227 31.0264 157.172 30.9395L155.571 31.6089L155.788 32.1239C156.059 32.774 156.551 33.0218 157.059 32.8094Z" fill="white"/>
<path d="M82.2402 55.4998H84.8051L86.5614 51.6891H93.3149L94.9709 55.4998H97.5746L90.0449 38.8184L82.2402 55.4998ZM87.5511 49.4619L90.0028 44.1256L92.3413 49.4619H87.5511Z" fill="white"/>
<path d="M118.825 57.5625L117.893 59.1717L116.871 57.6076L116.008 59.6513L115.122 57.7749C115.099 58.0646 115.086 58.3671 115.086 58.6697C115.086 62.5544 117.133 65.7053 117.133 65.7053C117.133 65.7053 117.14 65.6988 117.146 65.6892C117.149 65.6988 117.156 65.7053 117.156 65.7053C117.156 65.7053 119.207 62.5544 119.207 58.6697C119.207 58.409 119.197 58.1547 119.181 57.9037L118.825 57.5625Z" fill="white"/>
<path d="M132.426 34.4572C134.803 30.8525 139.68 29.2851 140.793 28.9021C136.068 29.0662 132.545 33.1344 132.545 33.1344C132.545 33.1344 133.926 30.6014 136.469 29.063C132.545 30.3826 129.282 35.2328 129.156 36.1372C129.249 35.1041 130.349 33.0057 130.812 32.0208C128.654 33.1247 127.412 36.6973 126.778 38.7152C126.752 38.7957 126.73 38.8729 126.707 38.947C126.655 39.1143 126.588 39.301 126.5 39.5038C126.413 39.7098 126.309 39.9286 126.186 40.1603C125.446 41.5572 120.015 45.915 117.143 45.8635C115.367 45.8313 112.615 44.1931 110.593 42.616C109.934 41.8758 109.267 41.2804 108.591 40.8169C108.358 40.5627 108.187 40.3374 108.093 40.1603C107.967 39.9318 107.864 39.7098 107.779 39.5038C107.692 39.301 107.621 39.1143 107.572 38.947C107.55 38.8729 107.527 38.7957 107.501 38.7152C106.871 36.6973 105.625 33.1247 103.468 32.0208C103.937 33.0057 105.033 35.1041 105.13 36.1372C105.001 35.2328 101.741 30.3826 97.8174 29.063C100.36 30.6014 101.744 33.1344 101.744 33.1344C101.744 33.1344 98.2185 29.0694 93.493 28.9021C94.6024 29.2851 99.4831 30.8525 101.86 34.4572C98.5646 30.4727 92.044 28.0942 86.7622 28.606L86.8948 34.0291L88.0948 29.9513L88.1401 32.7224L89.3206 29.8934L89.2947 31.7247L90.0419 29.9674L90.0581 31.1003C90.0581 31.1003 90.4882 30.0865 90.6597 30.1702C94.2531 31.9146 99.5737 35.3745 103.895 39.5134C101.731 39.581 99.881 40.3663 98.3511 41.8887C96.7501 43.4754 95.9512 45.4065 95.9512 47.6819C95.9512 49.9123 96.7371 51.8241 98.3123 53.4173C99.8842 55.004 101.776 55.7957 103.982 55.7957C106.243 55.7957 108.106 54.975 109.571 53.3368C110.218 52.6062 110.677 51.8177 110.949 50.9777C111.227 50.0701 111.366 49.0273 111.366 47.8493C112.211 48.5477 113.964 50.1055 115.487 52.6094C116.279 51.0388 117.133 50.0475 117.133 50.0475C117.133 50.0475 117.137 50.054 117.146 50.0636C117.153 50.054 117.159 50.0475 117.159 50.0475C117.159 50.0475 118.013 51.0388 118.799 52.6094C120.028 50.5882 121.406 49.1882 122.338 48.3546C122.506 50.5142 123.382 52.294 124.98 53.6844C126.6 55.0877 128.431 55.7893 130.466 55.7893C132.768 55.7893 134.732 55.0008 136.362 53.4205C137.982 51.8467 138.794 49.9349 138.794 47.6755C138.794 45.4322 137.986 43.5108 136.372 41.9112C134.764 40.3116 132.836 39.5134 130.588 39.5134C130.521 39.5134 130.456 39.5199 130.388 39.5231C134.712 35.3777 140.033 31.921 143.63 30.1734C143.804 30.0897 144.231 31.1035 144.231 31.1035L144.247 29.9706L144.995 31.7279L144.962 29.8966L146.146 32.7256L146.191 29.9545L147.388 34.0323L147.521 28.6092C142.242 28.0942 135.722 30.4727 132.426 34.4572ZM104.852 47.3279V49.5551H108.785C108.675 50.6558 108.155 51.6021 107.223 52.3938C106.288 53.1791 105.237 53.5718 104.066 53.5718C102.692 53.5718 101.414 53.0472 100.237 51.9947C98.9753 50.8618 98.3479 49.4231 98.3479 47.6755C98.3479 45.9826 98.9139 44.5729 100.043 43.4464C101.172 42.3006 102.572 41.7277 104.241 41.7277C105.033 41.7277 105.768 41.8919 106.457 42.2041C106.55 42.3103 106.647 42.4165 106.738 42.5259C110.5 47.0028 110.503 47.1348 110.736 47.3311H104.852V47.3279ZM130.556 41.7342C132.206 41.7342 133.587 42.3039 134.703 43.44C135.828 44.5697 136.388 45.9729 136.388 47.6433C136.388 49.2944 135.819 50.6977 134.683 51.8499C133.545 52.986 132.151 53.5557 130.495 53.5557C128.968 53.5557 127.623 52.9957 126.458 51.8788C125.287 50.762 124.702 49.3362 124.702 47.6015C124.702 46.8484 124.825 46.1532 125.061 45.5095C125.617 44.8336 126.403 43.8873 127.526 42.5517C128.415 42.0142 129.424 41.7342 130.556 41.7342Z" fill="white"/>
<path d="M117.146 50.6885C117.136 50.6789 117.133 50.6725 117.133 50.6725C117.133 50.6725 114.177 54.0937 114.177 58.3164L115.118 57.2897L116.007 59.1725L116.871 57.1319L117.893 58.6961L118.825 57.0837L120.115 58.3099C120.115 54.0873 117.162 50.666 117.162 50.666C117.162 50.666 117.152 50.6789 117.146 50.6885Z" fill="white"/>
<path d="M141.388 40.6979C140.482 41.4896 140.029 42.4745 140.029 43.6524C140.029 45.4001 141.11 46.7261 143.267 47.6337L144.79 48.2645C145.185 48.4319 145.525 48.6121 145.812 48.7988C146.097 48.9854 146.33 49.185 146.511 49.3974C146.692 49.6098 146.825 49.8448 146.909 50.099C146.993 50.3533 147.035 50.6333 147.035 50.9358C147.035 51.6954 146.789 52.3198 146.301 52.8154C145.809 53.3111 145.195 53.5557 144.451 53.5557C143.51 53.5557 142.795 53.2178 142.306 52.5387C142.035 52.1878 141.844 51.5506 141.734 50.6269L139.324 51.1547C139.541 52.6191 140.091 53.7552 140.967 54.5663C141.86 55.3774 142.989 55.7829 144.36 55.7829C145.803 55.7829 147.012 55.3098 147.986 54.3571C148.953 53.4141 149.438 52.22 149.438 50.7749C149.438 49.6967 149.141 48.7859 148.549 48.0424C147.957 47.299 147.019 46.6714 145.738 46.1564L144.166 45.5159C143.021 45.0492 142.449 44.4313 142.449 43.6653C142.449 43.1085 142.665 42.6483 143.102 42.2813C143.539 41.908 144.085 41.7213 144.748 41.7213C145.285 41.7213 145.725 41.8308 146.065 42.0464C146.391 42.2363 146.737 42.6418 147.097 43.2662L149.027 42.1269C148.005 40.3728 146.585 39.4941 144.768 39.4941C143.422 39.5006 142.293 39.8997 141.388 40.6979Z" fill="white"/>
</g>
<defs>
<clipPath id="clip0_332_765">
<rect width="234" height="95" fill="white"/>
</clipPath>
</defs>
</svg>
