<svg width="52" height="52" viewBox="0 0 52 52" fill="none" xmlns="http://www.w3.org/2000/svg">
<g clip-path="url(#clip0_282_301)">
<path d="M52.0001 24.4743C52.0001 25.4899 52.0001 26.5055 52.0001 27.5211C51.9698 27.6829 51.9221 27.8437 51.9116 28.0079C51.7556 30.3512 51.2653 32.6258 50.4654 34.8293C45.9206 47.3541 32.7171 54.4109 19.7698 51.2465C6.41378 47.9831 -2.14712 34.6174 0.47052 21.1224C1.47426 15.9478 3.81942 11.472 7.52348 7.73222C11.4069 3.80962 16.0739 1.34053 21.5269 0.400645C22.5062 0.231768 23.4983 0.131607 24.4834 0C25.4988 0 26.5142 0 27.5296 0C28.2154 0.0815266 28.9024 0.151407 29.5871 0.248074C34.7118 0.972496 39.2437 3.01881 43.1225 6.44642C47.6905 10.482 50.5492 15.504 51.5995 21.5254C51.7707 22.5013 51.8685 23.4913 52.0001 24.4743ZM25.9902 48.9486C38.6324 48.9625 48.9493 38.6518 48.9528 26.0012C48.9563 13.3715 38.6883 3.08171 26.0484 3.0456C13.4143 3.01183 3.08467 13.311 3.06021 25.9686C3.03576 38.6098 13.3375 48.9346 25.9902 48.9486Z" fill="#071142"/>
<path d="M22.6957 22.1462C25.0979 24.5489 27.4512 26.9027 29.8767 29.3287C30.2878 28.8931 30.714 28.4179 31.1658 27.9683C33.0987 26.049 35.6686 26.0408 37.6144 27.9485C38.5087 28.8255 39.3925 29.7118 40.2693 30.6063C42.0881 32.4628 42.1079 35.0495 40.3089 36.9176C39.4763 37.783 38.6239 38.6308 37.7588 39.4647C35.9341 41.2269 33.6879 41.6287 31.2729 41.3841C28.3455 41.0871 25.729 39.9073 23.2837 38.3606C19.0394 35.6749 15.6043 32.1786 13.0891 27.8111C11.8211 25.6087 10.886 23.2759 10.6194 20.7311C10.3457 18.1199 10.8942 15.7545 12.8947 13.877C13.6224 13.1945 14.3036 12.462 15.0163 11.7632C16.8386 9.97308 19.2606 9.84962 21.1633 11.5372C22.287 12.5342 23.3582 13.6057 24.3468 14.7377C25.9549 16.5779 25.835 18.962 24.1384 20.7299C23.668 21.2179 23.1731 21.6791 22.6957 22.1462ZM32.9299 38.4096C33.8346 38.4422 35.0445 37.9728 36.0284 36.9048C36.6817 36.1967 37.3896 35.5387 38.0673 34.8527C38.7672 34.1457 38.773 33.4271 38.0825 32.7306C37.2255 31.8653 36.3638 31.0034 35.4986 30.1463C34.7231 29.3776 34.0524 29.3857 33.2664 30.1672C32.5107 30.9184 31.7631 31.6778 31.0051 32.4278C30.2004 33.2245 29.3644 33.2326 28.5656 32.4348C25.559 29.4358 22.556 26.4333 19.5587 23.425C18.7611 22.6248 18.7774 21.8003 19.5843 20.9862C20.3587 20.2047 21.1423 19.4337 21.9143 18.651C22.5851 17.972 22.5886 17.2418 21.9213 16.5663C21.0527 15.6881 20.1793 14.8146 19.3014 13.9458C18.5713 13.2225 17.8738 13.2237 17.139 13.9469C16.3926 14.683 15.666 15.4412 14.9103 16.1679C14.0416 17.003 13.6702 18.0361 13.6178 19.2124C13.5421 20.8883 13.9333 22.4816 14.6064 23.9887C17.3405 30.1171 21.8317 34.5289 27.8937 37.3416C29.3062 37.9984 30.8199 38.3921 32.9299 38.4096Z" fill="#071142"/>
</g>
<defs>
<clipPath id="clip0_282_301">
<rect width="52" height="52" fill="white"/>
</clipPath>
</defs>
</svg>
