<svg width="95" height="95" viewBox="0 0 95 95" fill="none" xmlns="http://www.w3.org/2000/svg">
<g clip-path="url(#clip0_141_43)">
<path d="M71.2707 13.5341C65.8016 13.7379 61.3766 15.8386 57.9894 20.002C54.5768 24.1972 53.9464 29.1309 54.3603 34.1855C52.8195 34.9048 51.4188 35.5542 49.8908 36.2672C47.2421 31.1807 42.6516 30.0094 37.2462 30.525C39.5382 29.8566 41.4101 28.7044 42.6962 26.7309C43.9887 24.7447 44.4089 22.5866 43.9186 20.2503C43.1037 16.3479 39.5382 13.5214 35.4825 13.5723C31.4205 13.6296 28.0397 16.5516 27.282 20.6577C26.4862 24.9993 28.8228 28.4242 33.9036 30.455C32.21 30.5441 30.4272 30.4868 28.6955 30.7542C24.0795 31.4672 20.5204 35.586 20.3803 40.2587C20.3103 42.5886 20.3485 44.925 20.3612 47.2549C20.374 49.483 21.7747 50.8835 24.0158 50.8899C30.3063 50.9026 36.6031 50.8963 42.8936 50.8963C43.2437 50.8963 43.6003 50.8963 44.1351 50.8963C44.1351 53.1371 44.1351 55.3397 44.1351 57.6824C43.9186 57.6824 43.5366 57.6824 43.161 57.6824C36.4121 57.6824 29.6569 57.6824 22.908 57.6824C22.5578 57.6824 22.1949 57.6442 21.8511 57.7079C20.9343 57.8734 20.3867 58.44 20.3867 59.3758C20.3867 60.3116 20.9406 60.8782 21.8511 61.0437C22.1949 61.1074 22.5578 61.0692 22.908 61.0692C29.9434 61.0692 36.9788 61.0819 44.0141 61.0501C44.7845 61.0437 45.0774 61.2856 45.3321 62.0177C45.9942 63.9466 46.7901 65.8246 47.5859 67.8553C47.2994 67.8553 46.9429 67.8553 46.58 67.8553C38.6278 67.8553 30.6692 67.8553 22.717 67.8617C22.2649 67.8617 21.7874 67.8872 21.3736 68.0463C20.6286 68.3328 20.1766 69.0139 20.4313 69.7269C20.635 70.2999 21.2271 70.7964 21.7492 71.1784C22.0039 71.3694 22.5005 71.2421 22.8889 71.2421C31.6179 71.2421 40.3532 71.2548 49.0822 71.2293C49.8271 71.2293 50.2919 71.4585 50.7821 72.0123C56.0411 77.9518 62.6372 81.103 70.5767 81.4149C70.755 81.4213 70.9269 81.434 71.207 81.4531C71.2261 81.7523 71.2643 82.0515 71.2643 82.3571C71.2707 85.3237 71.2771 88.2966 71.2643 91.2632C71.258 93.6377 69.8891 94.9936 67.4951 94.9936C46.2489 95 25.0027 95 3.75645 94.9936C1.38161 94.9936 0 93.6186 0 91.2504C0 62.0941 0 32.9441 0 3.78778C0 1.33686 1.34978 0 3.82012 0C25.0281 0 46.2425 0 67.4506 0C69.9018 0 71.2643 1.35596 71.2707 3.79414C71.2771 7.00261 71.2707 10.2175 71.2707 13.5341ZM35.6353 81.4277C37.9338 81.4277 40.2322 81.4277 42.5307 81.4277C44.7209 81.4277 46.9174 81.4468 49.1076 81.4149C50.19 81.4022 50.9031 80.6892 50.9031 79.7279C50.9031 78.7667 50.19 78.0919 49.1076 78.0346C48.8275 78.0219 48.541 78.0282 48.2608 78.0282C40.5187 78.0282 32.7766 78.0282 25.0345 78.0282C24.0094 78.0282 22.9525 77.8882 21.972 78.0919C21.399 78.2128 20.6732 78.7985 20.5013 79.3269C20.3485 79.798 20.7305 80.6065 21.1189 81.0457C21.399 81.3576 22.0867 81.4022 22.596 81.4022C26.9382 81.4404 31.2868 81.4277 35.6353 81.4277Z" fill="#F9B233"/>
<path d="M57.6969 37.2674C57.6969 35.0775 57.6842 32.894 57.6969 30.7104C57.7224 26.0441 59.5879 22.25 63.3762 19.5508C67.712 16.4633 72.4426 16.0368 77.205 18.3795C81.9992 20.7349 84.5523 24.7582 84.8198 30.112C84.9344 32.4674 84.8389 34.8356 84.8389 37.1592C86.0104 37.4202 87.1309 37.5666 88.1815 37.9295C92.2563 39.3236 95.0067 43.0414 94.994 47.3321C94.9813 51.1008 95.1022 54.9267 94.542 58.6381C93.033 68.6582 84.1958 76.794 74.1043 77.8571C61.1796 79.2131 49.8848 70.8099 47.8728 57.9761C47.2743 54.1755 47.3444 50.2032 47.65 46.3517C48.0511 41.278 52.0495 37.7576 57.1812 37.3438C57.3149 37.3247 57.4486 37.2992 57.6969 37.2674ZM78.0581 37.2801C78.0581 34.9311 78.09 32.6775 78.0518 30.424C77.9881 26.9354 75.3013 24.0643 71.8695 23.7715C68.4123 23.4723 65.1398 25.7704 64.6941 29.2526C64.3566 31.8754 64.6304 34.5746 64.6304 37.2801C69.0427 37.2801 73.4804 37.2801 78.0581 37.2801ZM74.6582 55.9708C74.6582 55.3724 74.6837 54.7676 74.6519 54.1692C74.5627 52.3294 73.0856 50.9034 71.2774 50.897C69.4629 50.8907 67.9603 52.2976 67.8839 54.1373C67.833 55.3724 67.833 56.6137 67.8839 57.8424C67.9603 59.6248 69.4374 61.0317 71.1947 61.0636C72.9965 61.0954 74.5245 59.6949 74.6455 57.8742C74.6901 57.244 74.6582 56.6074 74.6582 55.9708Z" fill="#F9B233"/>
</g>
<defs>
<clipPath id="clip0_141_43">
<rect width="95" height="95" fill="white"/>
</clipPath>
</defs>
</svg>
