<svg width="99" height="107" viewBox="0 0 99 107" fill="none" xmlns="http://www.w3.org/2000/svg">
<g clip-path="url(#clip0_310_184)">
<path d="M53.7407 92.6084H40.3794V97.9168H53.7407V92.6084Z" fill="#071142"/>
<path d="M64.2765 107H29.7964C30.4436 104.576 32.8746 102.581 35.5784 102.556C43.2231 102.487 50.87 102.485 58.517 102.558C61.2231 102.585 63.6856 104.617 64.2765 107Z" fill="#071142"/>
<path d="M94.075 50.0661C90.5548 46.4916 87.1136 42.9966 83.5776 39.4084C85.3704 36.2111 86.5949 32.5979 87.0956 28.7461C87.5917 24.9262 87.312 21.1471 86.3784 17.4226C89.1567 16.6863 92.5754 18.6724 93.6127 21.622C93.8585 22.3242 94.0525 23.09 94.057 23.8263C94.0863 32.5434 94.075 41.2627 94.075 50.0661Z" fill="#071142"/>
<path d="M96.6324 66.1237C95.2816 66.46 94.2533 65.8714 93.3242 64.9306C88.3563 59.8995 83.3726 54.8842 78.3888 49.8712C77.7597 49.2372 77.0967 48.6373 76.6299 48.1919C78.1678 46.6443 79.5885 45.215 81.0859 43.7106C81.0025 43.6424 81.1491 43.7424 81.2708 43.8651C86.8093 49.4417 92.3523 55.0137 97.8749 60.6039C99.8166 62.5696 99.1445 65.4987 96.6324 66.1237Z" fill="#071142"/>
<path d="M58.1065 4.15726e-05C44.4971 -0.0249552 33.321 11.2259 33.3232 24.9469C33.3255 38.6292 44.3911 49.8141 57.9983 49.8891C71.5941 49.9641 82.7883 38.7428 82.8289 25.0014C82.8717 11.2804 71.7407 0.0250384 58.1065 4.15726e-05ZM57.9554 44.8989C47.0814 44.8102 38.2416 35.8296 38.2754 24.906C38.3092 13.9165 47.2731 4.93578 58.1516 4.99031C69.0684 5.04485 77.9376 14.0619 77.879 25.0446C77.8181 36.0432 68.8407 44.9898 57.9554 44.8989Z" fill="#071142"/>
<path d="M93.2632 84.3732C92.2484 86.2434 90.7082 87.4001 88.6426 87.8273C88.1307 87.9341 87.6007 87.9886 87.0798 87.9886C60.382 87.9954 33.6819 88.0045 6.9841 87.9841C2.91144 87.9818 0.0790635 85.0708 0.00915622 80.9691C-0.0111394 79.7306 0.00690114 78.4898 0.00690114 77.1514H94.0705C93.9826 79.6124 94.5103 82.078 93.2632 84.3732Z" fill="#071142"/>
<path d="M89.4183 67.4123C85.7493 63.681 82.051 59.9792 78.3662 56.2637C76.4854 54.3662 74.607 52.4688 72.6856 50.5304C67.0457 53.5527 63.4782 54.239 59.8565 54.3526C47.6182 54.7344 38.4085 49.4964 32.3063 38.7955C31.8643 38.0229 31.4245 37.7615 30.5676 37.7661C23.7415 37.8002 16.9154 37.7888 10.0893 37.7843C8.12738 37.782 7.05622 36.9844 7.02916 35.5368C7.0021 34.0915 8.08228 33.2644 10.0239 33.2485H30.0129C28.4862 27.8401 28.4636 22.5862 29.8234 17.2301H28.5516C21.5361 17.2301 14.5228 17.2278 7.50949 17.2323C2.78962 17.2346 0.0091167 20.0161 0.00686163 24.7473C0.00460656 40.2817 0.00686163 55.8161 0.00686163 71.3482V72.5162H94.0389V70.5278C92.1086 70.0529 90.751 68.7689 89.4183 67.4123ZM10.2066 44.1357C12.7525 44.1335 15.2985 44.1357 17.8468 44.1357C20.3927 44.1357 22.941 44.1312 25.4869 44.138C25.9334 44.1403 26.3912 44.1516 26.8287 44.2357C27.8097 44.4243 28.5335 45.3197 28.5696 46.3218C28.6057 47.2944 27.9157 48.2829 26.9572 48.5147C26.4544 48.6351 25.9199 48.6647 25.399 48.6647C20.3431 48.6761 15.2872 48.6738 10.2314 48.6715C8.12287 48.6692 6.99083 47.8421 7.02916 46.3468C7.06524 44.8697 8.1116 44.138 10.2066 44.1357ZM28.4456 59.4042C27.9405 59.5224 27.4083 59.5519 26.8873 59.5519C21.3489 59.5633 15.8082 59.5588 10.2674 59.5588H10.0442C8.11611 59.5406 7.02465 58.7134 7.02465 57.275C7.02691 55.832 8.09581 55.0275 10.0487 55.023C12.9307 55.0162 15.8149 55.0207 18.6969 55.0207C21.4661 55.0207 24.2354 55.0184 27.0069 55.0252C27.4534 55.0275 27.9089 55.0389 28.3464 55.123C29.3161 55.3116 30.0377 56.2251 30.0625 57.225C30.0873 58.2112 29.4017 59.1815 28.4456 59.4042ZM37.1772 59.4997C35.9572 59.5292 34.9267 58.5475 34.8974 57.3272C34.8658 56.1069 35.849 55.0821 37.0735 55.0593C38.3003 55.0343 39.3241 56.0024 39.3602 57.225C39.3962 58.4248 38.3927 59.4701 37.1772 59.4997Z" fill="#071142"/>
<path d="M58.1023 9.52639C49.7269 9.51275 42.8377 16.396 42.7768 24.8381C42.7159 33.3188 49.5803 40.3202 58.003 40.3656C66.4325 40.4088 73.3533 33.4892 73.3781 24.9971C73.4029 16.4982 66.5317 9.54002 58.1023 9.52639ZM66.0987 27.1878C64.9351 27.2764 64.0038 26.3833 63.7084 25.0949C63.4423 23.9405 63.2032 22.7133 62.6192 21.7157C61.6653 20.0841 60.0281 19.4297 58.1699 19.2661C56.5914 19.1274 55.642 17.9844 55.89 16.6528C56.102 15.5188 57.0108 14.7712 58.2105 14.7507C63.4423 14.6644 68.2726 19.5297 68.1937 24.804C68.1757 26.0993 67.2984 27.0969 66.0987 27.1878Z" fill="#071142"/>
</g>
<defs>
<clipPath id="clip0_310_184">
<rect width="99" height="107" fill="white"/>
</clipPath>
</defs>
</svg>
